<?xml version="1.0" encoding="utf-8"?>
<!-- Generator: Adobe Illustrator 27.0.0, SVG Export Plug-In . SVG Version: 6.00 Build 0)  -->
<svg version="1.1" id="Layer_1" xmlns="http://www.w3.org/2000/svg" xmlns:xlink="http://www.w3.org/1999/xlink" x="0px" y="0px"
	 viewBox="0 0 923.1 456.6" style="enable-background:new 0 0 923.1 456.6;" xml:space="preserve">
<style type="text/css">
	.st0{fill:url(#SVGID_1_);}
	.st1{fill:#1870C5;}
	.st2{fill-rule:evenodd;clip-rule:evenodd;fill:#FFFFFF;}
</style>
<linearGradient id="SVGID_1_" gradientUnits="userSpaceOnUse" x1="-220.4721" y1="612.1239" x2="-219.5144" y2="612.1239" gradientTransform="matrix(0 476.8208 -476.8208 0 292334.9375 105125.6641)">
	<stop  offset="0" style="stop-color:#00B8F1"/>
	<stop  offset="0.2199" style="stop-color:#06A5E5"/>
	<stop  offset="0.2199" style="stop-color:#06A5E5"/>
	<stop  offset="0.7943" style="stop-color:#1870C5"/>
	<stop  offset="1" style="stop-color:#1D61BC"/>
</linearGradient>
<path class="st0" d="M0,0v456.6h466.5L923.1,0.1L0,0L0,0z"/>
<path class="st1" d="M590.9,409.9v34.1h5.1v-14.8h5.8l9.3,14.8h5.8l-10-14.8c5-0.6,9-3.5,9-9.6c0-6.7-4.1-9.6-12.2-9.6H590.9z
	 M596,414.4h7.1c3.5,0,7.4,0.6,7.4,4.8c0,5.3-4,5.8-8.4,5.8H596V414.4z M602.4,397.3c-16.3,0-30.2,12.6-30.2,29.6
	c0,17.1,13.9,29.9,30.2,29.9c16.1,0,29.6-12.8,29.6-29.9C632,409.9,618.5,397.3,602.4,397.3z M602.4,402.1
	c13.3,0,23.8,10.7,23.8,24.7c0,14.2-10.5,24.7-23.8,24.7c-13.5,0-24.4-10.5-24.4-24.7C578,412.9,588.9,402.1,602.4,402.1z"/>
<path class="st2" d="M553.1,218.4h-20v-73.2h20c26.7,0,48,8.8,48,36.1C601.1,209.5,579.8,218.4,553.1,218.4 M337.8,270.7
	c-10.6,0-20.5-1.9-29.1-5.2l28.8-90.9h0.6l28.2,91.1C357.8,268.8,348.1,270.7,337.8,270.7 M547.8,85.8h-90.9v216l-79.4-216h-78.7
	l-67.8,180.6c-7.2-45.5-54.3-61.3-91.4-73c-24.4-7.9-50.5-19.4-50.2-32.2c0.2-10.5,14-20.2,41.1-18.7c18.3,0.9,34.4,2.4,66.5,17.9
	l31.6-55C199.4,90.4,158.9,81,125.7,80.9h-0.2c-38.7,0-70.9,12.6-90.9,33.2c-13.9,14.4-21.4,32.7-21.7,53
	c-0.5,27.8,9.7,47.6,31.2,63.4c18.2,13.3,41.3,21.9,61.8,28.3c25.2,7.8,45.8,14.6,45.6,29.1c-0.2,5.3-2.2,10.2-6,14.1
	c-6.3,6.5-15.9,8.9-29.3,9.2c-25.7,0.5-44.8-3.5-75.2-21.5l-28.1,55.8C43.2,362.9,79.1,373,115.8,373h4.7
	c31.9-0.6,57.6-9.7,78.2-26.2l3.3-2.9l-9.1,24.4h82.5l13.9-42.1c14.5,4.9,31,7.7,48.5,7.7c17.1,0,33.1-2.6,47.4-7.3l13.3,41.7h134.6
	v-87.3h29.4c70.9,0,113-36.1,113-96.7C675.4,116.8,634.7,85.9,547.8,85.8"/>
</svg>
