<?xml version="1.0" encoding="utf-8"?>
<!-- Generator: Adobe Illustrator 27.0.0, SVG Export Plug-In . SVG Version: 6.00 Build 0)  -->
<svg version="1.1" id="Layer_1" xmlns="http://www.w3.org/2000/svg" xmlns:xlink="http://www.w3.org/1999/xlink" x="0px" y="0px"
	 viewBox="0 0 573.3 533.3" style="enable-background:new 0 0 573.3 533.3;" xml:space="preserve">
<style type="text/css">
	.st0{fill:#5059C9;}
	.st1{fill:#7B83EB;}
	.st2{opacity:0.2;enable-background:new    ;}
	.st3{fill:url(#SVGID_1_);}
	.st4{fill:#FFFFFF;}
</style>
<path class="st0" d="M399.9,200H548c14,0,25.3,11.3,25.3,25.3v134.9c0,51.4-41.7,93.1-93.1,93.1h-0.4c-51.4,0-93.1-41.7-93.1-93.1
	v-147C386.7,205.9,392.6,200,399.9,200L399.9,200z"/>
<circle class="st0" cx="500" cy="113.3" r="60"/>
<circle class="st1" cx="313.3" cy="86.7" r="86.7"/>
<path class="st1" d="M428.9,200H184.4c-13.8,0.3-24.8,11.8-24.4,25.6v153.9c-1.9,83,63.7,151.8,146.7,153.8
	c83-2,148.6-70.9,146.7-153.8V225.6C453.7,211.8,442.7,200.3,428.9,200z"/>
<path class="st1" d="M0,0"/>
<path class="st1" d="M0,0"/>
<path class="st1" d="M0,0"/>
<path class="st1" d="M0,0"/>
<path class="st1" d="M0,0"/>
<path class="st1" d="M0,0"/>
<path class="st1" d="M0,0"/>
<path class="st2" d="M293.3,144.4v26.5c-27-6.4-49.3-25.3-60-50.9h35.6C282.4,120.1,293.3,130.9,293.3,144.4z"/>
<linearGradient id="SVGID_1_" gradientUnits="userSpaceOnUse" x1="1421.2294" y1="920.4167" x2="2165.3635" y2="2209.2273" gradientTransform="matrix(0.2572 0 0 0.2572 -314.6315 -135.86)">
	<stop  offset="0" style="stop-color:#5A62C3"/>
	<stop  offset="0.5" style="stop-color:#4D55BD"/>
	<stop  offset="1" style="stop-color:#3940AB"/>
</linearGradient>
<path class="st3" d="M24.4,120h244.5c13.5,0,24.4,10.9,24.4,24.4v244.5c0,13.5-10.9,24.4-24.4,24.4H24.4C10.9,413.3,0,402.4,0,388.9
	V144.4C0,130.9,10.9,120,24.4,120z"/>
<path class="st4" d="M211,213h-48.9v133.1H131V213H82.3v-25.8H211V213z"/>
</svg>
