<?xml version="1.0" encoding="utf-8"?>
<!-- Generator: Adobe Illustrator 26.5.0, SVG Export Plug-In . SVG Version: 6.00 Build 0)  -->
<svg version="1.1" id="katman_1" xmlns="http://www.w3.org/2000/svg" xmlns:xlink="http://www.w3.org/1999/xlink" x="0px" y="0px"
	 viewBox="0 0 494 96.2" style="enable-background:new 0 0 494 96.2;" xml:space="preserve">
<style type="text/css">
	.st0{fill:#1D1D1B;}
	.st1{fill:#9B65C3;}
	.st2{fill:#BE63C5;}
	.st3{fill:#BF63C6;}
	.st4{fill:#3278B1;}
	.st5{fill:#3278B2;}
	.st6{fill:#45A4EC;}
	.st7{fill:#19BB7D;}
	.st8{fill:#08C7FB;}
	.st9{fill:#59F2F6;}
	.st10{fill:#DA3757;}
	.st11{fill:#D33C4E;}
	.st12{fill:#EE5A24;}
	.st13{fill:#8BDF55;}
	.st14{fill:#25C16F;}
	.st15{fill:#FFBB00;}
	.st16{fill:#FFA800;}
</style>
<g>
	<g>
		<path class="st0" d="M124.9,2.4c-12,0-16.4,8.4-16.4,16.4v4.8h-2.6c-1.9,0-3.4,1.4-3.4,3.4s1.4,3.4,3.4,3.4h2.6v33.2
			c0,1.9,1.4,3.4,3.4,3.4c1.9,0,3.4-1.4,3.4-3.4V30.1h7.7c1.9,0,3.4-1.4,3.4-3.4s-1.4-3.4-3.4-3.4h-7.7v-4.8c0-4.3,1.7-9.6,9.4-9.6
			c1.9,0,3.4-1.4,3.4-3.4S126.9,2.4,124.9,2.4z M152.1,22.4c-5.3,0-9.6,2.2-12,5.8v-1.9c0-1.9-1.4-3.4-3.4-3.4
			c-1.9,0-3.6,1.4-3.6,3.4v37.1c0,1.9,1.4,3.4,3.4,3.4c1.9,0,3.4-1.4,3.4-3.4V42.8c0-8.7,4.6-13.7,12-13.7c1.9,0,3.4-1.4,3.4-3.4
			C155.7,24.1,154.1,22.4,152.1,22.4z M195,40.7c0-1.9-0.2-7.2-3.4-11.5c-3.1-4.6-7.9-7-14.4-7c-12.3,0-19.2,8.2-19.2,22.4
			c0,14.7,7,22.6,20.2,22.6c8.9,0,13.7-4.3,14.7-5.3c0.5-0.5,1.2-1.2,1.2-2.4c0-1.7-1.4-3.1-3.1-3.1c-1,0-1.4,0.2-1.9,0.7
			c-2.6,1.9-5.5,3.8-10.6,3.8c-7.9,0-13-5.3-13.2-13.7h25.7C195,46.9,195,43.1,195,40.7z M177.2,28.6c7.2,0,10.8,4.1,11.1,12h-23.3
			C165.6,33,169.9,28.6,177.2,28.6z M218.5,41.1c-5.3-1.7-9.6-3.4-9.6-7.2c0-4.3,4.8-4.8,7.5-4.8c5.1,0,7.5,1.7,9.6,3.6
			c0.7,0.7,1.4,1,2.4,1c1.7,0,3.1-1.4,3.1-3.1c0-1-0.5-1.7-0.7-2.2c-2.9-3.8-7.9-6-14.2-6c-8.9,0-14.4,4.3-14.4,11.5
			c0,8.7,7.7,11.3,14.4,13.7c5.1,1.7,9.6,3.1,9.6,7c0,5.1-5.8,6-9.1,6c-4.6,0-8.2-1.4-11.1-4.3c-1-1-1.7-1-2.4-1
			c-1.7,0-3.1,1.4-3.1,3.1c0,0.7,0.2,1.2,0.7,2.2c2.6,3.4,8.7,6.7,16.1,6.7c10.1,0,16.1-4.8,16.1-12.5
			C232.7,46,225.3,43.6,218.5,41.1z M260.2,22.1c-4.8,0-9.1,1.9-11.5,5.1V3.4c0-1.9-1.4-3.4-3.4-3.4c-1.9,0-3.4,1.4-3.4,3.4v59.9
			c0,1.9,1.4,3.4,3.4,3.4c1.9,0,3.4-1.4,3.4-3.4V40.7c0-8.2,3.8-12.3,11.5-12.3c7.5,0,10.3,3.4,10.3,11.5V63c0,1.9,1.4,3.4,3.4,3.4
			c1.9,0,3.4-1.4,3.4-3.4V39C277.5,27.9,271.7,22.1,260.2,22.1z M335.7,22.9c-1.4,0-2.6,1-3.4,2.4l-9.9,28.4l-8.2-28.4
			c-0.2-1.2-1.4-2.4-3.4-2.4c-1.7,0-2.9,1.2-3.4,2.4l-8.2,28.4L289.5,25c-0.5-1.4-1.7-2.2-3.4-2.2c-1.9,0-3.4,1.4-3.4,3.4
			c0,0.5,0,1,0.2,1.4l13.5,36.8c0.5,1.4,1.7,2.2,3.4,2.2s2.9-1,3.4-2.4l7.9-26.9l7.9,26.9c0.5,1.4,1.9,2.4,3.4,2.4
			c1.4,0,2.6-1,3.4-2.4l13.5-36.8c0.2-0.5,0.2-1,0.2-1.4C339.3,24.3,337.6,22.9,335.7,22.9L335.7,22.9z M361.2,22.1
			c-12.8,0-19.7,7.9-19.7,22.4s7,22.6,19.7,22.6c12.8,0,19.7-7.9,19.7-22.6C381,30.3,374,22.1,361.2,22.1z M361.2,60.9
			c-8.4,0-12.8-5.3-12.8-16.1c0-10.6,4.3-16.1,12.8-16.1c8.4,0,12.8,5.3,12.8,16.1C373.7,55.6,369.7,60.9,361.2,60.9z M407.9,22.4
			c-5.3,0-9.6,2.2-12,5.8v-1.9c0-1.9-1.4-3.4-3.4-3.4s-3.4,1.4-3.4,3.4v37.1c0,1.9,1.4,3.4,3.4,3.4c1.9,0,3.4-1.4,3.4-3.4V42.8
			c0-8.7,4.6-13.7,12-13.7c1.9,0,3.4-1.4,3.4-3.4C411.3,24.1,409.8,22.4,407.9,22.4z M434.6,40.7l14.4-11.5c1.2-1,1.4-2.2,1.4-2.9
			c0-1.9-1.4-3.4-3.4-3.4c-0.5,0-1.4,0-2.4,1L424,40.7V3.4c0-1.9-1.4-3.4-3.4-3.4c-1.9,0-3.4,1.4-3.4,3.4v59.9
			c0,1.9,1.4,3.4,3.4,3.4c1.9,0,3.4-1.4,3.4-3.4V48.8l4.8-3.8l15.9,20.2c1,1,1.9,1.7,2.9,1.7c1.9,0,3.4-1.4,3.4-3.4
			c0-0.5,0-1.4-0.7-2.2L434.6,40.7z M474.1,41.1c-5.3-1.7-9.6-3.4-9.6-7.2c0-4.3,4.8-4.8,7.5-4.8c5.1,0,7.5,1.7,9.6,3.6
			c0.7,0.7,1.4,1,2.4,1c1.7,0,3.1-1.4,3.1-3.1c0-1-0.5-1.7-0.7-2.2c-2.9-3.8-7.9-6-14.2-6c-8.9,0-14.4,4.3-14.4,11.5
			c0,8.7,7.7,11.3,14.4,13.7c5.1,1.7,9.6,3.1,9.6,7c0,5.1-5.8,6-9.1,6c-4.6,0-8.2-1.4-11.1-4.3c-1-1-1.7-1-2.4-1
			c-1.7,0-3.1,1.4-3.1,3.1c0,0.7,0.2,1.2,0.7,2.2c2.6,3.4,8.7,6.7,16.1,6.7c10.1,0,16.1-4.8,16.1-12.5
			C488.3,46,480.8,43.6,474.1,41.1z"/>
	</g>
	<path class="st1" d="M8.5,61.4C9.7,70.3,14,78.2,20,84.2l14-14c0-14.2,7.5-27.9,20.5-35.6L8.5,61.4z"/>
	<path class="st1" d="M34,70.3c-7,0-14-1.7-20.5-5.5c-1.7-1-3.4-2.2-5.1-3.4C9.7,70.3,14,78.2,20,84.2C20,84.2,34,70.3,34,70.3z"/>
	<path class="st2" d="M34,70.3l-14,14c6,6,14,10.3,22.9,11.5l26.7-46C61.9,62.8,48.2,70.3,34,70.3z"/>
	<path class="st3" d="M39.5,90.7C35.7,84.2,34,77.2,34,70.3l-14,14c6,6,14,10.3,22.9,11.5C41.7,94.3,40.5,92.6,39.5,90.7z"/>
	<path class="st4" d="M86.2,16.4L54.4,34.6c-13.2,7.7-28.6,7-40.9,0c-3.6,6-5.5,13-5.5,20.7c0,2.2,0.2,4.1,0.5,6
		c1.7,1.2,3.4,2.4,5.1,3.4C20,68.6,27,70.3,34,70.3l52.9-52.9C86.7,16.8,86.4,16.6,86.2,16.4z"/>
	<path class="st5" d="M13.5,64.7C20,68.6,27,70.3,34,70.3c0-14.2,7.5-27.9,20.5-35.6l-46,26.7C9.9,62.6,11.6,63.8,13.5,64.7z"/>
	<path class="st6" d="M13.5,34.6c-3.6,6-5.5,13-5.5,20.7c0,2.2,0.2,4.1,0.5,6l46-26.7C41.4,42.3,25.8,41.9,13.5,34.6z"/>
	<path class="st7" d="M86.9,17.3c-0.2-0.2-0.5-0.5-1-0.7c-0.5-0.2-0.7-0.7-1.2-1c-1.4-1-3.4-1.4-5.1-1.4H48.9
		c-15.2,0-28.4,8.2-35.6,20.5c12.3,7,27.9,7.7,40.9,0C41,42.3,33.7,56.1,33.7,70.3c14.2,0,27.9-7.5,35.6-20.5L87.6,18
		C87.6,17.8,87.4,17.6,86.9,17.3z"/>
	<path class="st8" d="M54.4,34.6l31.8-18.3c-0.5-0.2-0.7-0.7-1.2-1L13.5,34.6C25.8,41.9,41.4,42.3,54.4,34.6z"/>
	<path class="st9" d="M79.7,14.2H48.9c-15.2,0-28.4,8.2-35.6,20.5l71.5-19.2C83.3,14.7,81.6,14.2,79.7,14.2z"/>
	<path class="st10" d="M69.6,49.8L87.9,18c-0.2-0.2-0.5-0.5-0.7-1L34.2,70c0,7,1.7,14,5.5,20.5c1,1.7,2.2,3.4,3.4,5.1
		c1.9,0.2,4.1,0.5,6,0.5c7.5,0,14.4-1.9,20.5-5.5C62.4,78.4,61.9,62.8,69.6,49.8z"/>
	<path class="st11" d="M34,70.3c0,7,1.7,14,5.5,20.5c1,1.7,2.2,3.4,3.4,5.1l26.7-46C61.9,62.8,48.2,70.3,34,70.3z"/>
	<path class="st12" d="M69.6,49.8l-26.7,46c1.9,0.2,4.1,0.5,6,0.5c7.5,0,14.4-1.9,20.5-5.5C62.4,78.4,61.9,62.8,69.6,49.8z"/>
	<path class="st13" d="M88.6,19.2c-0.2-0.5-0.5-1-1-1.2c-0.2-0.2-0.5-0.5-0.7-1c-0.2-0.2-0.5-0.5-1-0.7L54.2,34.6
		C41,42.3,33.7,56.1,33.7,70.3c14.2,0,27.9-7.5,35.6-20.5c-7.7,13.2-7,28.6,0,40.9c12.3-7,20.5-20.5,20.5-35.6V24.5
		C90.1,22.6,89.6,20.9,88.6,19.2z"/>
	<path class="st14" d="M86.2,16.4L54.4,34.6C41.2,42.3,34,56.1,34,70.3l52.9-52.9C86.7,16.8,86.4,16.6,86.2,16.4z"/>
	<path class="st13" d="M34,70.3c14.2,0,27.9-7.5,35.6-20.5L87.9,18c-0.2-0.2-0.5-0.5-0.7-1L34,70.3z"/>
	<path class="st15" d="M87.9,18L69.6,49.8c-7.7,13.2-7,28.6,0,40.9l19.2-71.5C88.4,19,88.1,18.5,87.9,18z"/>
	<path class="st16" d="M69.6,90.7c12.3-7,20.5-20.5,20.5-35.6V24.5c0-1.9-0.5-3.6-1.4-5.1L69.6,90.7z"/>
</g>
</svg>
