<?xml version="1.0" encoding="UTF-8"?>
<svg id="Layer_1" data-name="Layer 1" xmlns="http://www.w3.org/2000/svg" width="1280" height="295" viewBox="0 0 1280 295">
  <defs>
    <style>
      .cls-1 {
        fill: #fff;
      }

      .cls-2 {
        fill: #231f20;
      }

      .cls-3 {
        fill: #1d1d1b;
      }
    </style>
  </defs>
  <path class="cls-3" d="M371.69,114.91h114.7v21.4h-45.1v120.3h-24.8v-120.3h-44.9l.1-21.4h0Zm109.8,39.1h21.2v19.8h.4c.7-2.8,2-5.5,3.9-8.1s4.2-5.1,6.9-7.2c2.7-2.2,5.7-3.9,9-5.3,3.3-1.3,6.7-2,10.1-2,2.6,0,4.5,.1,5.5,.2s2,.3,3.1,.4v21.8c-1.6-.3-3.2-.5-4.9-.7s-3.3-.3-4.9-.3c-3.8,0-7.4,.8-10.8,2.3-3.4,1.5-6.3,3.8-8.8,6.7-2.5,3-4.5,6.6-6,11s-2.2,9.4-2.2,15.1v48.8h-22.6l.1-102.5h0Zm164,102.6h-22.2v-14.3h-.4c-2.8,5.2-6.9,9.3-12.4,12.4-5.5,3.1-11.1,4.7-16.8,4.7-13.5,0-23.3-3.3-29.3-10s-9-16.8-9-30.3v-65.1h22.6v62.9c0,9,1.7,15.4,5.2,19.1,3.4,3.7,8.3,5.6,14.5,5.6,4.8,0,8.7-.7,11.9-2.2s5.8-3.4,7.7-5.9c2-2.4,3.4-5.4,4.3-8.8,.9-3.4,1.3-7.1,1.3-11.1v-59.5h22.6v102.5Zm38.5-32.9c.7,6.6,3.2,11.2,7.5,13.9,4.4,2.6,9.6,4,15.7,4,2.1,0,4.5-.2,7.2-.5s5.3-1,7.6-1.9c2.4-.9,4.3-2.3,5.9-4.1,1.5-1.8,2.2-4.1,2.1-7-.1-2.9-1.2-5.3-3.2-7.1-2-1.9-4.5-3.3-7.6-4.5-3.1-1.1-6.6-2.1-10.6-2.9s-8-1.7-12.1-2.6c-4.2-.9-8.3-2.1-12.2-3.4s-7.4-3.1-10.5-5.4c-3.1-2.2-5.6-5.1-7.4-8.6-1.9-3.5-2.8-7.8-2.8-13,0-5.6,1.4-10.2,4.1-14,2.7-3.8,6.2-6.8,10.3-9.1,4.2-2.3,8.8-3.9,13.9-4.9,5.1-.9,10-1.4,14.6-1.4,5.3,0,10.4,.6,15.2,1.7s9.2,2.9,13.1,5.5c3.9,2.5,7.1,5.8,9.7,9.8,2.6,4,4.2,8.9,4.9,14.6h-23.6c-1.1-5.4-3.5-9.1-7.4-10.9-3.9-1.9-8.4-2.8-13.4-2.8-1.6,0-3.5,.1-5.7,.4s-4.2,.8-6.2,1.5c-1.9,.7-3.5,1.8-4.9,3.2-1.3,1.4-2,3.2-2,5.5,0,2.8,1,5,2.9,6.7s4.4,3.1,7.5,4.3c3.1,1.1,6.6,2.1,10.6,2.9s8.1,1.7,12.3,2.6c4.1,.9,8.1,2.1,12.1,3.4s7.5,3.1,10.6,5.4,5.6,5.1,7.5,8.5,2.9,7.7,2.9,12.7c0,6.1-1.4,11.2-4.2,15.5-2.8,4.2-6.4,7.7-10.8,10.3-4.4,2.6-9.4,4.6-14.8,5.8-5.4,1.2-10.8,1.8-16.1,1.8-6.5,0-12.5-.7-18-2.2s-10.3-3.7-14.3-6.6c-4-3-7.2-6.7-9.5-11.1-2.3-4.4-3.5-9.7-3.7-15.8h22.8v-.2h0Zm74.6-69.7h17.1v-30.8h22.6v30.8h20.4v16.9h-20.4v54.8c0,2.4,.1,4.4,.3,6.2,.2,1.7,.7,3.2,1.4,4.4s1.8,2.1,3.3,2.7c1.5,.6,3.4,.9,6,.9,1.6,0,3.2,0,4.8-.1s3.2-.3,4.8-.7v17.5c-2.5,.3-5,.5-7.3,.8-2.4,.3-4.8,.4-7.3,.4-6,0-10.8-.6-14.4-1.7-3.6-1.1-6.5-2.8-8.5-5-2.1-2.2-3.4-4.9-4.2-8.2-.7-3.3-1.2-7.1-1.3-11.3v-60.5h-17.1v-17.1h-.2Zm76.1,0h21.4v13.9h.4c3.2-6,7.6-10.2,13.3-12.8s11.8-3.9,18.5-3.9c8.1,0,15.1,1.4,21.1,4.3,6,2.8,11,6.7,15,11.7s6.9,10.8,8.9,17.4,3,13.7,3,21.2c0,6.9-.9,13.6-2.7,20-1.8,6.5-4.5,12.2-8.1,17.2s-8.2,8.9-13.8,11.9-12.1,4.5-19.7,4.5c-3.3,0-6.6-.3-9.9-.9-3.3-.6-6.5-1.6-9.5-2.9s-5.9-3-8.4-5.1c-2.6-2.1-4.7-4.5-6.5-7.2h-.4v51.2h-22.6V154.01Zm79,51.4c0-4.6-.6-9.1-1.8-13.5s-3-8.2-5.4-11.6-5.4-6.1-8.9-8.1c-3.6-2-7.7-3.1-12.3-3.1-9.5,0-16.7,3.3-21.5,9.9s-7.2,15.4-7.2,26.4c0,5.2,.6,10,1.9,14.4,1.3,4.4,3.1,8.2,5.7,11.4,2.5,3.2,5.5,5.7,9,7.5,3.5,1.9,7.6,2.8,12.2,2.8,5.2,0,9.5-1.1,13.1-3.2,3.6-2.1,6.5-4.9,8.8-8.2,2.3-3.4,4-7.2,5-11.5,.9-4.3,1.4-8.7,1.4-13.2h0Zm39.9-90.5h22.6v21.4h-22.6s0-21.4,0-21.4Zm0,39.1h22.6v102.6h-22.6v-102.6h0Zm42.8-39.1h22.6v141.7h-22.6V114.91h0Zm91.9,144.5c-8.2,0-15.5-1.4-21.9-4.1s-11.8-6.5-16.3-11.2c-4.4-4.8-7.8-10.5-10.1-17.1-2.3-6.6-3.5-13.9-3.5-21.8s1.2-15,3.5-21.6,5.7-12.3,10.1-17.1c4.4-4.8,9.9-8.5,16.3-11.2s13.7-4.1,21.9-4.1,15.5,1.4,21.9,4.1,11.8,6.5,16.3,11.2c4.4,4.8,7.8,10.5,10.1,17.1,2.3,6.6,3.5,13.8,3.5,21.6s-1.2,15.2-3.5,21.8-5.7,12.3-10.1,17.1-9.9,8.5-16.3,11.2-13.7,4.1-21.9,4.1h0Zm0-17.9c5,0,9.4-1.1,13.1-3.2,3.7-2.1,6.7-4.9,9.1-8.3,2.4-3.4,4.1-7.3,5.3-11.6,1.1-4.3,1.7-8.7,1.7-13.2s-.6-8.7-1.7-13.1-2.9-8.2-5.3-11.6-5.4-6.1-9.1-8.2-8.1-3.2-13.1-3.2-9.4,1.1-13.1,3.2-6.7,4.9-9.1,8.2c-2.4,3.4-4.1,7.2-5.3,11.6-1.1,4.4-1.7,8.7-1.7,13.1s.6,8.9,1.7,13.2,2.9,8.2,5.3,11.6c2.4,3.4,5.4,6.2,9.1,8.3,3.7,2.2,8.1,3.2,13.1,3.2h0Zm58.4-87.5h17.1v-30.8h22.6v30.8h20.4v16.9h-20.4v54.8c0,2.4,.1,4.4,.3,6.2,.2,1.7,.7,3.2,1.4,4.4,.7,1.2,1.8,2.1,3.3,2.7s3.4,.9,6,.9c1.6,0,3.2,0,4.8-.1,1.6-.1,3.2-.3,4.8-.7v17.5c-2.5,.3-5,.5-7.3,.8-2.4,.3-4.8,.4-7.3,.4-6,0-10.8-.6-14.4-1.7s-6.5-2.8-8.5-5c-2.1-2.2-3.4-4.9-4.2-8.2-.7-3.3-1.2-7.1-1.3-11.3v-60.5h-17.1v-17.1h-.2Z"/>
  <path class="cls-2" d="M345.29,114.91h-103.6L209.69,16.31l-32.1,98.6-103.6-.1,83.9,61-32.1,98.5,83.9-60.9,83.8,60.9-32-98.5,83.8-60.9Z"/>
  <path class="cls-1" d="M268.69,198.11l-7.2-22.3-51.8,37.6,59-15.3Z"/>
</svg>