<?xml version="1.0" encoding="UTF-8"?>
<svg id="katman_1" data-name="katman 1" xmlns="http://www.w3.org/2000/svg" width="680.5" height="150.5" viewBox="0 0 680.5 150.5">
  <path d="M0,55.3H100.3V17.7L0,55.3Z"/>
  <path d="M100.3,17.7V150.4L147.7,0l-47.4,17.7Z"/>
  <path d="M100.3,55.3H62.4l37.9,95.1V55.3Z"/>
  <path d="M0,55.3l72.1,24.4-9.7-24.4H0Z"/>
  <path d="M229.7,115.5c-.5,.5-1.5,1.2-2.7,2.1-1.3,.8-3,1.6-5,2.5-2.1,.8-4.6,1.5-7.6,2.1s-6.4,.9-10.2,.9c-7.4,0-13.8-1.2-19.2-3.6s-9.9-5.7-13.4-10-6.1-9.3-7.8-15.1c-1.6-5.8-2.5-12.2-2.5-19.2s.9-13.4,2.7-19.3,4.5-11,8-15.3c3.6-4.3,8-7.7,13.4-10.1s11.7-3.6,18.9-3.6c3.6,0,6.8,.3,9.7,1,2.9,.6,5.4,1.4,7.6,2.3,2.2,.9,3.9,1.8,5.4,2.7,1.4,1,2.5,1.8,3.2,2.4,.8,.7,1.5,1.6,2.1,2.6s.9,2.1,.9,3.3c0,1.8-.7,3.7-2.1,5.5s-2.9,3.5-4.5,5.1c-1.1-1.1-2.3-2.2-3.7-3.4-1.4-1.1-2.9-2.2-4.6-3-1.7-.9-3.6-1.6-5.8-2.2-2.2-.6-4.6-.9-7.2-.9-4.7,0-8.6,.9-11.7,2.8-3.2,1.9-5.7,4.3-7.6,7.4-1.9,3-3.3,6.5-4.1,10.4s-1.2,7.9-1.2,11.9c0,4.3,.4,8.4,1.2,12.4,.8,3.9,2.2,7.4,4.3,10.4,2,3,4.6,5.5,7.9,7.3,3.2,1.8,7.3,2.7,12.2,2.7,2.6,0,4.9-.3,7.1-1,2.2-.6,4.1-1.4,5.7-2.3s3.1-1.9,4.3-2.9c1.2-1,2.3-1.9,3.1-2.6,.5,.6,1.2,1.4,1.9,2.3,.7,.9,1.4,1.9,2.1,2.9,.6,1,1.2,2,1.6,3,.5,1,.7,1.9,.7,2.7,0,1.2-.2,2.2-.7,3-.6,.8-1.4,1.8-2.4,2.8h0Zm70.8-10.6c0,7.3,1.1,12.6,3.2,15.9-1.7,.6-3.2,1.1-4.6,1.4s-2.9,.4-4.5,.4c-3.3,0-5.8-.6-7.5-1.9s-2.8-3.1-3.2-5.5c-2,2.1-4.7,3.9-8,5.4s-7.4,2.2-12.2,2.2c-2.5,0-5-.3-7.5-1s-4.7-1.8-6.8-3.4c-2-1.6-3.7-3.7-5-6.3-1.3-2.6-1.9-5.8-1.9-9.6,0-4.7,1.1-8.5,3.4-11.4s5.1-5.3,8.5-7,7.1-2.9,11.1-3.5,7.6-1.1,10.9-1.2c1.1-.1,2.2-.1,3.2-.1h3v-2.5c0-3.5-.9-6.1-2.8-7.5-1.9-1.5-5-2.2-9.2-2.2s-7.5,.6-10.6,1.9-6.1,2.8-9.1,4.4c-1.3-1.6-2.3-3.3-3.1-5.2-.8-1.9-1.2-3.3-1.2-4.2,0-1.3,.7-2.5,2.1-3.7s3.4-2.3,5.9-3.2c2.5-1,5.3-1.7,8.6-2.3,3.2-.6,6.6-.9,10.2-.9,5,0,9.2,.5,12.6,1.5,3.5,1,6.3,2.6,8.4,4.7,2.2,2.1,3.7,4.8,4.6,7.9,.9,3.2,1.4,6.9,1.4,11.1l.1,25.8h0Zm-17.7-16h-1.9c-.6,0-1.3,0-1.9,.1-2.3,.2-4.6,.5-6.8,.8-2.3,.4-4.3,1-6,1.9-1.8,.9-3.2,2.1-4.3,3.6-1.1,1.5-1.7,3.4-1.7,5.7,0,2.6,.7,4.8,2.2,6.6,1.5,1.8,4,2.7,7.5,2.7,1.7,0,3.4-.2,5-.7s2.9-1.1,4.1-1.8c1.2-.7,2.1-1.5,2.8-2.4,.7-.9,1-1.7,1-2.4v-14.1h0Zm52.1-27.2c1.5-1.7,3.8-3.5,6.9-5.3s7.1-2.7,11.8-2.7c3.4,0,6.6,.6,9.7,1.7,3.1,1.2,5.8,3,8.2,5.6,2.4,2.6,4.3,6,5.7,10.2,1.4,4.2,2.1,9.4,2.1,15.6,0,7.2-.8,13.1-2.5,17.8-1.7,4.7-3.8,8.3-6.4,11.1-2.6,2.7-5.5,4.6-8.7,5.7s-6.4,1.7-9.6,1.7c-2.7,0-5-.3-7-.9s-3.7-1.3-5-2c-1.4-.7-2.4-1.5-3.2-2.2-.7-.7-1.2-1.2-1.4-1.5v34h-18.8V55.7c.5-.1,1-.2,1.7-.3,.6-.1,1.2-.2,2-.2,.7,0,1.6-.1,2.6-.1,3.1,0,5.7,.5,7.8,1.5,2.2,1,3.6,2.7,4.1,5.1h0Zm24.9,25.5c0-2.8-.2-5.3-.7-7.7-.5-2.4-1.2-4.5-2.3-6.2-1.1-1.7-2.5-3.1-4.3-4.1s-4-1.5-6.5-1.5c-3.8,0-6.5,.7-8,2.2s-2.3,3.1-2.3,4.8v29.3c.7,.7,2,1.6,3.9,2.6s4.1,1.5,6.5,1.5c4.7,0,8.1-1.8,10.3-5.5,2.3-3.6,3.4-8.7,3.4-15.4Zm34.1,23.8c-.6-1.8-1.1-3.8-1.2-5.8-.2-2-.3-4.1-.3-6.1V35c.6-.1,1.3-.2,2.1-.3,.6-.1,1.3-.2,2.1-.2,.7,0,1.5-.1,2.2-.1,1.5,0,2.9,.1,4.4,.4s2.8,.8,4,1.7c1.2,.8,2.2,2,2.9,3.4,.7,1.4,1.1,3.3,1.1,5.6v9.8h19.4v14h-19.4v29.5c0,6.4,2.6,9.6,7.9,9.6,1.3,0,2.5-.2,3.7-.6s2.2-.9,3.1-1.4,1.7-1,2.4-1.6c.7-.6,1.2-1,1.5-1.2,1.4,2,2.4,3.8,3.2,5.3,.7,1.5,1.1,2.9,1.1,4.2,0,1.2-.5,2.4-1.5,3.6s-2.3,2.2-4.1,3.2c-1.8,1-3.9,1.8-6.4,2.4s-5.2,.9-8.2,.9c-5.7,0-10.2-1.1-13.3-3.3-3.1-2.4-5.4-5.3-6.7-8.9h0Zm84.3-1.8c2.3,0,4.3-.3,6.1-.8s3.3-1.1,4.7-1.9c1.4-.7,2.6-1.5,3.6-2.4s1.9-1.7,2.8-2.4c1.1,1.4,2.3,3.2,3.5,5.3,1.2,2.2,1.8,3.9,1.8,5.3,0,2-1.2,3.9-3.5,5.5-1.9,1.5-4.7,2.7-8.2,3.8-3.5,1.1-7.7,1.6-12.5,1.6-4.3,0-8.6-.6-12.8-1.7s-7.9-3-11.2-5.8-5.9-6.5-7.9-11.1c-2-4.7-3-10.5-3-17.6,0-5.8,.9-10.8,2.7-15,1.8-4.2,4.2-7.7,7.2-10.4,3-2.8,6.4-4.8,10.2-6.1,3.8-1.3,7.6-1.9,11.6-1.9,5.2,0,9.5,.8,13.1,2.4s6.5,3.8,8.8,6.5,3.9,5.8,4.9,9.3,1.5,7.2,1.5,11.1v1.9c0,.7,0,1.5-.1,2.3,0,.8-.1,1.6-.1,2.4s-.1,1.4-.2,1.9h-40.8c.4,5.1,1.9,9.3,4.7,12.6,2.7,3.5,7.1,5.2,13.1,5.2h0Zm6.3-28c0-4.4-.9-8-2.6-10.8-1.7-2.8-4.8-4.1-9.2-4.1-3.8,0-6.8,1.3-9.1,3.9s-3.4,6.3-3.4,11h24.3Zm49.7-19.2c.6-.8,1.3-1.7,2.2-2.7s2-1.9,3.4-2.7c1.3-.8,2.8-1.5,4.4-2.1,1.6-.5,3.3-.8,5.2-.8,1.1,0,2.3,.1,3.5,.3,1.2,.2,2.4,.5,3.5,1s1.9,1.2,2.6,2.1c.6,.9,1,1.9,1,3.2,0,2-.5,4.3-1.5,6.9s-2,4.8-3,6.7c-1.6-1.3-3.1-2.3-4.7-3-1.6-.7-3.4-1-5.5-1-2.9,0-5.3,.8-7.2,2.5s-2.9,3.6-2.9,6v44.7h-18.8V55.7c.5-.1,1-.2,1.7-.3,.6-.1,1.2-.2,1.9-.2s1.6-.1,2.6-.1c2.9,0,5.5,.6,7.7,1.7,2,1.1,3.3,2.8,3.9,5.2h0Zm53.4,0c.6-.8,1.3-1.7,2.2-2.7s2-1.9,3.4-2.7c1.3-.8,2.8-1.5,4.4-2.1,1.6-.5,3.3-.8,5.2-.8,1.1,0,2.3,.1,3.5,.3,1.2,.2,2.4,.5,3.5,1s1.9,1.2,2.6,2.1c.6,.9,1,1.9,1,3.2,0,2-.5,4.3-1.5,6.9s-2,4.8-3,6.7c-1.6-1.3-3.1-2.3-4.7-3-1.6-.7-3.4-1-5.5-1-2.9,0-5.3,.8-7.2,2.5s-2.9,3.6-2.9,6v44.7h-18.8V55.7c.5-.1,1-.2,1.7-.3,.6-.1,1.2-.2,1.9-.2s1.6-.1,2.6-.1c2.9,0,5.5,.6,7.7,1.7,2,1.1,3.4,2.8,3.9,5.2h0Zm89.7,42.9c0,7.3,1.1,12.6,3.2,15.9-1.7,.6-3.2,1.1-4.6,1.4-1.4,.3-2.9,.4-4.5,.4-3.3,0-5.8-.6-7.5-1.9s-2.8-3.1-3.2-5.5c-2,2.1-4.7,3.9-8,5.4s-7.4,2.2-12.2,2.2c-2.5,0-5-.3-7.5-1s-4.7-1.8-6.8-3.4c-2-1.6-3.7-3.7-5-6.3-1.3-2.6-1.9-5.8-1.9-9.6,0-4.7,1.1-8.5,3.4-11.4,2.3-2.9,5.1-5.3,8.5-7s7.1-2.9,11.1-3.5,7.6-1.1,10.9-1.2c1.1-.1,2.2-.1,3.2-.1h3v-2.5c0-3.5-.9-6.1-2.8-7.5-1.9-1.5-5-2.2-9.2-2.2s-7.5,.6-10.6,1.9-6.1,2.8-9.1,4.4c-1.3-1.6-2.3-3.3-3.1-5.2-.8-1.9-1.2-3.3-1.2-4.2,0-1.3,.7-2.5,2.1-3.7,1.4-1.2,3.4-2.3,5.9-3.2,2.5-1,5.3-1.7,8.6-2.3,3.2-.6,6.6-.9,10.2-.9,5,0,9.2,.5,12.6,1.5,3.5,1,6.3,2.6,8.4,4.7,2.2,2.1,3.7,4.8,4.6,7.9,.9,3.2,1.4,6.9,1.4,11.1l.1,25.8h0Zm-17.7-16h-1.9c-.6,0-1.3,0-1.9,.1-2.3,.2-4.6,.5-6.8,.8-2.3,.4-4.3,1-6,1.9-1.8,.9-3.2,2.1-4.3,3.6s-1.7,3.4-1.7,5.7c0,2.6,.7,4.8,2.2,6.6,1.5,1.8,4,2.7,7.5,2.7,1.7,0,3.4-.2,5-.7s2.9-1.1,4.1-1.8c1.2-.7,2.1-1.5,2.8-2.4s1-1.7,1-2.4v-14.1h0Z"/>
</svg>