<?xml version="1.0" encoding="UTF-8"?>
<svg id="Layer_1" data-name="Layer 1" xmlns="http://www.w3.org/2000/svg" width="1115" height="189.5" viewBox="0 0 1115 189.5">
  <path d="M89.57,.56c.74,.37,1.49,.74,2.04,1.3l32.15,32.15c1.3,1.3,2.04,2.97,2.04,4.83V187.13c0,1.3-.93,2.23-2.23,2.23-.56,0-1.11-.19-1.49-.56l-30.29-30.29c-1.3-1.3-2.04-2.97-2.04-4.83V.56h-.19Z"/>
  <path d="M178.03,2.04c.56-.56,1.3-1.12,2.04-1.49V153.68c0,1.86-.74,3.53-2.04,4.83l-30.29,30.29c-.93,.93-2.23,.93-3.16,0-.37-.37-.56-.93-.56-1.49V39.02c0-1.67,.74-3.53,2.04-4.65h0L178.03,2.04h0Z"/>
  <path d="M236.38,119.86l-2.23-2.23v-31.59h-30.66c-.56,0-1.12,.19-1.67,.74h0l-21.93,21.93,70.25,70.43h0c1.3,1.3,2.97,1.86,4.83,1.86h36.98c1.3,0,2.23-.93,2.23-2.23,0-.56-.19-1.12-.56-1.49l-57.24-57.42Z"/>
  <path d="M182.67,0c-1.86,0-3.53,.74-4.83,2.04h0l-32.15,32.15h0c-.56,.56-.93,1.3-1.3,1.86h89.76V117.45l2.23,2.23,31.96-31.78c1.3-1.3,2.04-2.97,2.04-4.83V39.02c0-1.86-.74-3.53-2.04-4.83L236.19,2.04c-1.3-1.3-2.97-2.04-4.83-2.04h-48.69Z"/>
  <path d="M91.43,2.04c-1.3-1.3-2.97-2.04-4.83-2.04H2.23C.93,0,0,.93,0,2.23c0,.56,.19,1.12,.74,1.67l30.29,30.29c1.3,1.3,2.97,2.04,4.83,2.04H121.35c2.42,0,4.46,2.04,4.46,4.46v-1.67c0-1.86-.74-3.53-2.04-4.83L91.43,2.04Z"/>
  <path d="M177.84,2.04c1.3-1.3,2.97-2.04,4.83-2.04h48.69c1.86,0,3.53,.74,4.83,2.04l32.15,32.15c1.3,1.3,2.04,2.97,2.04,4.83v1.67c0-2.42-2.04-4.46-4.46-4.46h-117.45c-2.42,0-4.46,2.04-4.46,4.46v-1.67c0-1.86,.74-3.53,2.04-4.83L177.84,2.04Z"/>
  <path d="M270.39,81.39c0,2.42-2.04,4.46-4.46,4.46h-60.58c-.56,0-1.12,.56-1.12,1.12,0,.37,.19,.56,.37,.74l31.96,31.96,31.96-31.78c1.3-1.3,2.04-2.97,2.04-4.83v-1.67h-.19Z"/>
  <path d="M1115,121.16c0-15.24-8.73-21-30.11-26.39-12.82-3.16-16.17-5.76-16.17-10.22s4.09-7.43,12.45-7.43c9.29,.37,18.21,2.79,26.39,7.25l2.6-16.35c-9.11-3.9-18.96-5.76-28.99-5.76-19.33,0-30.66,9.85-30.66,23.6,0,14.87,8.36,20.44,28.43,25.46,13.94,3.34,17.84,5.58,17.84,11.52,0,5.39-5.39,8.73-14.87,8.73-10.78-.37-21.37-3.53-30.66-9.48l-2.6,16.54c10.04,5.02,21.19,7.62,32.34,7.81,22.3,0,34.01-9.48,34.01-25.27Zm-76.01,23.6V63.37h-19.7v55.19c-6.5,6.32-13.38,10.41-20.26,10.41-7.99,0-11.34-4.83-11.34-12.08V63.18h-19.7v58.72c0,15.05,8.36,24.16,24.34,24.16,11.15,0,20.26-5.76,28.25-13.01l2.79,11.34,15.61,.37Zm-82.88,0V63.37h-19.51v81.39h19.51Zm-9.66-117.08c6.32,0,11.34,5.02,11.34,11.34s-5.02,11.34-11.34,11.34-11.34-5.02-11.34-11.34,5.02-11.34,11.34-11.34Zm-41.07,89.94c-5.76,7.06-12.08,11.52-20.07,11.52-9.85,0-17.1-7.62-17.1-23.6,0-17.84,8.55-26.57,20.07-26.57,5.95-.19,11.89,1.12,17.1,3.53v35.12Zm19.51,27.13V23.79l-19.51,3.34v39.21c-6.32-2.04-13.01-3.16-19.88-3.16-19.7,0-37.17,13.38-37.17,43.48,0,27.13,14.31,39.77,32.15,39.77,11.89,0,20.07-5.95,26.2-12.82l1.67,11.15h16.54Zm-104.25-22.3c-5.58,5.57-13.01,8.73-20.81,9.11-6.69,0-10.96-3.72-10.96-9.48,0-7.81,6.13-14.68,31.96-17.65v18.03h-.19Zm19.51,22.3v-55.38c0-19.14-10.41-26.95-31.96-26.95-11.34,0-22.67,2.23-33.08,6.5l2.42,15.61c8.92-3.9,18.58-6.13,28.43-6.5,9.29,0,14.87,3.34,14.87,12.08v2.6c-34.57,3.34-51.29,11.71-51.29,31.22,0,13.94,9.66,22.3,24.16,22.3,10.78,0,21-4.46,28.43-12.08l1.86,10.41h16.17v.19Zm-73.96-2.97l-31.22-42.56c14.12-4.46,23.42-14.31,23.42-30.29,0-20.81-15.05-32.71-39.95-32.71h-34.38v108.53h20.26v-42h9.85l30.48,42.93,21.56-3.9Zm-28.06-71.73c0,11.34-8.55,17.47-22.3,17.47h-11.52V52.96h12.64c13.94,.19,21.19,6.32,21.19,17.1Zm-64.3,74.7l-2.42-16.17c-2.23,.37-4.65,.56-7.06,.56-7.99,0-11.15-3.53-11.15-10.22v-39.77h20.63l-3.34-15.8h-17.28v-28.25l-19.33,3.34v24.9h-13.19v15.8h13.19v42.93c0,18.21,10.78,23.79,26.95,23.79,4.46,.19,8.73-.19,13.01-1.11Zm-57.24-23.6c0-15.24-8.73-21-30.11-26.39-12.82-3.16-16.17-5.76-16.17-10.22s4.09-7.43,12.45-7.43c9.29,.37,18.21,2.79,26.39,7.25l2.79-16.35c-9.11-3.9-18.96-5.76-28.99-5.76-19.33,0-30.66,9.85-30.66,23.6,0,14.87,8.36,20.44,28.43,25.46,13.94,3.34,17.84,5.58,17.84,11.52,0,5.39-5.39,8.73-14.87,8.73-10.78-.37-21.18-3.53-30.29-9.48l-2.79,16.54c10.03,5.02,21.18,7.62,32.52,7.81,21.74,0,33.45-9.48,33.45-25.27Zm-74.89,23.6V63.37h-19.7v55.19c-6.5,6.32-13.38,10.41-20.26,10.41-7.99,0-11.34-4.83-11.34-12.08V63.18h-19.7v58.72c0,15.05,8.36,24.16,24.34,24.16,11.15,0,20.26-5.76,28.25-13.01l2.79,11.34,15.61,.37Zm-80.28-63.37l-4.46-19.14c-12.45,2.23-19.88,8.73-25.65,18.03l-3.72-16.91h-14.68v81.39h19.14v-46.46c6.5-9.85,17.47-16.17,29.36-16.91Z"/>
  <path d="M425.19,54.26l-4.46-18.03h-96.08v18.03h36.24v90.5h20.26V54.26h44.04Z"/>
</svg>