<?xml version="1.0" encoding="UTF-8"?>
<svg id="Layer_1" data-name="Layer 1" xmlns="http://www.w3.org/2000/svg" width="2279.28" height="2343.34" viewBox="0 0 2279.28 2343.34">
  <path d="M1606.13,1669.51c86.2,149.58,171.44,297.47,256.61,445.19-377.16,288.75-963.96,323.65-1398.35-8.88C-35.5,1722.86-117.66,1069.42,149.97,599.04,457.79,58,1033.82-61.65,1404.7,26.09c-10.03,21.79-232.16,482.62-232.16,482.62,0,0-17.56,1.15-27.49,1.35-109.62,4.65-191.27,30.15-278.79,75.4-194.95,101.73-326.79,293.49-351.97,511.94-12.94,109.11,2.15,219.72,43.84,321.37,35.25,85.94,85.11,162.27,151.95,226.71,102.54,98.95,224.57,160.22,366.01,180.51,133.95,19.23,262.76,.19,383.47-60.47,45.28-22.72,83.8-47.81,128.82-82.23,5.74-3.72,10.83-8.43,17.75-13.78h0Z"/>
  <path d="M1606.96,357.65c-21.89-21.53-42.17-41.4-62.36-61.4-12.05-11.92-23.65-24.32-35.99-35.95-4.42-4.2-9.61-9.93-9.61-9.93,0,0,4.2-8.91,5.99-12.56,23.62-47.39,60.63-82.03,104.53-109.59,48.55-30.71,105.11-46.33,162.53-44.89,73.48,1.44,141.8,19.74,199.44,69.02,42.55,36.37,64.38,82.51,68.22,137.6,6.41,92.93-32.04,164.1-108.41,213.77-44.86,29.22-93.25,51.82-141.76,78.57-26.76,14.77-49.64,27.75-75.78,54.48-23.01,26.82-24.13,52.1-24.13,52.1l347.58-.45v154.81h-536.52v-14.96c-2.05-76.07,6.83-147.66,41.66-216.75,32.04-63.38,81.84-109.78,141.67-145.51,46.08-27.53,94.59-50.95,140.77-78.35,28.49-16.89,48.61-41.66,48.45-77.58,0-30.83-22.43-58.22-54.48-66.78-75.56-20.38-152.47,12.14-192.46,81.3-5.83,10.09-11.79,20.12-19.35,33.07h0Zm672.32,1147.31l-292.92-505.85h-579.65l-294.81,511.07h583.91l288.14,503.45,295.32-508.67Z"/>
</svg>