<?xml version="1.0" encoding="UTF-8"?>
<svg id="Layer_2" data-name="Layer 2" xmlns="http://www.w3.org/2000/svg" viewBox="0 0 380.01 114.81">
  <defs>
    <style>
      .cls-1 {
        fill: #155195;
      }
    </style>
  </defs>
  <g id="Layer_1-2" data-name="Layer 1">
    <g id="g22845">
      <g id="g23593">
        <path id="path23441" class="cls-1" d="M132.1,111.12c0,1.34,.5,1.68,1.34,1.68s1.34-.34,1.34-1.68v-.84h2.01v.5c0,3.02-1.34,4.03-3.36,4.03s-3.36-1.01-3.36-4.03v-4.2c0-3.02,1.34-4.03,3.36-4.03s3.36,1.01,3.36,4.03h-2.01v-.34c0-1.34-.5-1.68-1.34-1.68s-1.34,.34-1.34,1.68v4.87"/>
        <path id="path23443" class="cls-1" d="M138.64,114.64v-11.92h5.71v2.01h-3.52v2.69h2.69v2.01h-2.69v3.19h3.69v2.01h-5.87"/>
        <path id="path23445" class="cls-1" d="M146.53,114.64v-11.92h2.18l2.85,7.05h0v-7.05h1.85v11.92h-2.01l-3.19-7.72h0v7.72h-1.68"/>
        <path id="path23447" class="cls-1" d="M161.97,102.72v2.01h-2.35v9.9h-2.01v-9.9h-2.35v-2.01h6.71"/>
        <path id="path23449" class="cls-1" d="M165.5,107.93h1.01c.84,0,1.51-.5,1.51-1.68s-.5-1.68-1.51-1.68h-1.01v3.36Zm2.69,6.71l-1.85-4.87h-1.01v4.87h-2.01v-11.92h3.02c2.52,0,3.69,1.34,3.69,3.52,0,1.51-.5,2.52-1.68,3.02l2.01,5.37h-2.18"/>
        <path id="path23451" class="cls-1" d="M171.88,114.64v-11.92h5.71v2.01h-3.52v2.69h2.69v2.01h-2.69v3.19h3.69v2.01h-5.87"/>
        <path id="path23453" class="cls-1" d="M184.13,114.64v-11.92h2.18l2.85,7.05h0v-7.05h1.85v11.92h-2.01l-3.19-7.72h0v7.72h-1.68"/>
        <path id="path23455" class="cls-1" d="M195.71,110.11h2.01l-1.01-4.87h0l-1.01,4.87Zm-3.02,4.53l2.69-11.92h2.69l2.52,11.92h-2.01l-.34-2.52h-2.85l-.5,2.52h-2.18"/>
        <path id="path23457" class="cls-1" d="M207.46,102.72v2.01h-2.52v9.9h-2.01v-9.9h-2.35v-2.01h6.88"/>
        <path id="path23459" class="cls-1" d="M208.8,114.64h2.01v-11.92h-2.01v11.92Z"/>
        <path id="path23461" class="cls-1" d="M215.02,111.12c0,1.34,.5,1.68,1.34,1.68s1.34-.34,1.34-1.68v-4.87c0-1.34-.5-1.68-1.34-1.68s-1.34,.34-1.34,1.68v4.87Zm-2.01-4.53c0-3.02,1.34-4.03,3.36-4.03s3.36,1.01,3.36,4.03v4.2c0,3.02-1.34,4.03-3.36,4.03s-3.36-1.01-3.36-4.03v-4.2"/>
        <path id="path23463" class="cls-1" d="M221.56,114.64v-11.92h2.18l2.85,7.05h0v-7.05h1.85v11.92h-2.01l-3.19-7.72h0v7.72h-1.68"/>
        <path id="path23465" class="cls-1" d="M232.98,110.11h2.01l-1.01-4.87h0l-1.01,4.87Zm-2.85,4.53l2.69-11.92h2.69l2.52,11.92h-2.01l-.5-2.52h-2.85l-.5,2.52h-2.01"/>
        <path id="path23467" class="cls-1" d="M239.35,114.64v-11.92h2.01v9.9h3.36v2.01h-5.37"/>
        <path id="path23469" class="cls-1" d="M252.78,112.63h.67c1.17,0,1.85-.67,1.85-2.35v-3.19c0-1.68-.5-2.35-1.85-2.35h-.67v7.89h0Zm-2.01-9.9h2.85c2.35,0,3.69,1.17,3.69,4.2v3.69c-.17,3.02-1.34,4.2-3.69,4.2h-2.85v-12.09"/>
        <path id="path23471" class="cls-1" d="M259.83,105.07h-.84v-2.35h2.18v2.35l-1.01,2.52h-1.01l.67-2.52"/>
        <path id="path23473" class="cls-1" d="M268.06,99.7l-2.18,2.35h-1.51l1.34-2.35h2.35Zm-5.2,14.94v-11.92h5.71v2.01h-3.52v2.69h2.69v2.01h-2.69v3.19h3.69v2.01h-5.87"/>
        <path id="path23475" class="cls-1" d="M276.95,102.72v2.01h-2.35v9.9h-2.01v-9.9h-2.35v-2.01h6.71"/>
        <path id="path23477" class="cls-1" d="M280.31,102.72v8.39c0,1.17,.5,1.68,1.51,1.68s1.51-.67,1.51-1.68v-8.39h2.01v8.39c0,2.69-1.34,3.69-3.52,3.69s-3.52-1.17-3.52-3.69v-8.39h2.01"/>
        <path id="path23479" class="cls-1" d="M289.37,112.63h.67c1.17,0,1.85-.67,1.85-2.35v-3.19c0-1.68-.5-2.35-1.85-2.35h-.67v7.89h0Zm-2.01-9.9h2.85c2.35,0,3.69,1.17,3.69,4.2v3.69c-.17,3.02-1.34,4.2-3.69,4.2h-2.85v-12.09"/>
        <path id="path23481" class="cls-1" d="M295.42,114.64v-11.92h5.71v2.01h-3.52v2.69h2.69v2.01h-2.69v3.19h3.69v2.01h-5.87"/>
        <path id="path23483" class="cls-1" d="M307.33,106.08c-.34-1.17-.84-1.68-1.51-1.68s-1.17,.5-1.17,1.34c0,1.85,4.53,2.01,4.53,5.71,0,2.01-1.34,3.36-3.36,3.36-1.68,0-3.02-1.01-3.52-3.36l2.01-.5c.17,1.51,1.01,2.01,1.68,2.01s1.34-.5,1.34-1.34c0-2.18-4.53-2.35-4.53-5.71,0-2.01,1.17-3.36,3.19-3.36,1.85,0,3.02,1.17,3.36,2.85l-2.01,.67"/>
        <path id="path23485" class="cls-1" d="M320.26,106.08c-.34-1.17-.84-1.68-1.51-1.68s-1.17,.5-1.17,1.34c0,1.85,4.53,2.01,4.53,5.71,0,2.01-1.34,3.36-3.36,3.36-1.68,0-3.02-1.01-3.52-3.36l2.01-.5c.17,1.51,1.01,2.01,1.68,2.01s1.34-.5,1.34-1.34c0-2.18-4.53-2.35-4.53-5.71,0-2.01,1.17-3.36,3.19-3.36,1.85,0,3.02,1.17,3.36,2.85l-2.01,.67"/>
        <path id="path23487" class="cls-1" d="M325.96,108.1h1.17c1.01,0,1.51-.5,1.51-1.68s-.5-1.68-1.51-1.68h-1.17v3.36Zm-2.01,6.55v-11.92h3.02c2.52,0,3.69,1.34,3.69,3.52s-1.17,3.52-3.69,3.52h-.84v4.87h-2.18"/>
        <path id="path23489" class="cls-1" d="M333.52,110.11h2.01l-1.01-4.87h0l-1.01,4.87Zm-3.02,4.53l2.69-11.92h2.69l2.52,11.92h-2.01l-.5-2.52h-2.85l-.5,2.52h-2.01"/>
        <path id="path23491" class="cls-1" d="M345.27,102.72v2.01h-2.35v9.9h-2.01v-9.9h-2.35v-2.01h6.71"/>
        <path id="path23493" class="cls-1" d="M346.78,114.64h2.01v-11.92h-2.01v11.92Z"/>
        <path id="path23495" class="cls-1" d="M353.16,110.11h2.01l-1.01-4.87h0l-1.01,4.87Zm-2.85,4.53l2.69-11.92h2.69l2.52,11.92h-2.01l-.5-2.52h-2.85l-.5,2.52h-2.01"/>
        <path id="path23497" class="cls-1" d="M359.37,114.64v-11.92h2.01v9.9h3.36v2.01h-5.37"/>
        <path id="path23499" class="cls-1" d="M366.08,114.64v-11.92h5.71v2.01h-3.52v2.69h2.69v2.01h-2.69v3.19h3.69v2.01h-5.87"/>
        <path id="path23501" class="cls-1" d="M378,106.08c-.34-1.17-.84-1.68-1.51-1.68s-1.17,.5-1.17,1.34c0,1.85,4.53,2.01,4.53,5.71,0,2.01-1.34,3.36-3.36,3.36-1.68,0-3.02-1.01-3.52-3.36l2.01-.5c.17,1.51,1.01,2.01,1.68,2.01s1.34-.5,1.34-1.34c0-2.18-4.53-2.35-4.53-5.71,0-2.01,1.17-3.36,3.19-3.36,1.85,0,3.02,1.17,3.36,2.85l-2.01,.67"/>
        <path id="path23503" class="cls-1" d="M153.08,35.92c-11.41,0-23,4.7-23,21.65v23h10.24v-22.83c0-11.41,7.39-14.1,12.76-14.1s12.76,2.69,12.76,14.1v22.83h10.24v-23c0-16.95-11.58-21.65-23-21.65"/>
        <path id="path23505" class="cls-1" d="M80.9,58.92c0,10.74,4.7,21.82,21.65,21.82h20.81v-7.55h-18.13c-11.41,0-13.76-8.9-13.76-14.1s2.18-14.27,13.76-14.27h18.13v-7.55h-20.81c-16.95-.17-21.65,10.74-21.65,21.65"/>
        <path id="path23507" class="cls-1" d="M193.03,62.44h35.58v-3.19c0-19.3-12.76-23.33-24.17-23.33-16.28,0-22.16,11.58-22.16,22.32v.67c0,10.74,4.7,21.82,21.65,21.82h23.5v-7.55h-20.81c-9.57-.17-12.76-5.71-13.6-10.74m24.67-6.55h-24.67c0-3.69,.34-13.26,12.25-13.26,14.27,0,12.42,13.26,12.42,13.26"/>
        <path id="path23509" class="cls-1" d="M260.5,55.56h-5.71c-5.37,0-8.73-1.68-8.73-5.54s2.69-5.2,8.06-5.37h22.66v-7.55h-22.49c-9.06,0-19.47,1.51-19.47,12.76,0,12.25,13.76,12.09,17.79,12.09h5.71c5.37,0,8.73,1.68,8.73,5.54s-2.69,5.2-8.06,5.37h-22.66v7.55h22.49c9.06,0,19.47-1.51,19.47-12.76,.17-12.42-13.6-12.09-17.79-12.09"/>
        <path id="path23511" class="cls-1" d="M52.54,74.19c-10.57-.17-22.32-9.23-22.32-24.34V0h-3.52V26.52C11.41,29.88,0,42.47,0,57.57c0,17.62,15.44,31.89,34.58,31.89,14.44,0,26.86-8.22,31.89-20.14-3.19,3.02-8.9,5.04-13.93,4.87"/>
        <path id="path23513" class="cls-1" d="M34.74,25.68c1.51-.17,19.13,0,29.54,15.78,3.52,5.2,.17,11.92-10.41,12.25-3.86,0-17.12-3.36-19.13-28.03"/>
      </g>
    </g>
  </g>
</svg>