<?xml version="1.0" encoding="utf-8"?>
<!-- Generator: Adobe Illustrator 27.0.0, SVG Export Plug-In . SVG Version: 6.00 Build 0)  -->
<svg version="1.1" id="Layer_1" xmlns="http://www.w3.org/2000/svg" xmlns:xlink="http://www.w3.org/1999/xlink" x="0px" y="0px"
	 viewBox="0 0 1190 394.1" style="enable-background:new 0 0 1190 394.1;" xml:space="preserve">
<style type="text/css">
	.st0{fill:#008545;}
</style>
<g id="logga_-_desktop" transform="matrix(6.049848 0 0 6.049848 -5092.274 -3733.982)">
	<path class="st0" d="M1034.9,630.8h-0.5v-3.5h1.3c0.8,0,1.3,0.3,1.3,1.1c0,0.5-0.3,0.8-0.8,1.1l1.1,1.6h-0.8l-0.8-1.6h-0.5v1.3
		L1034.9,630.8z M1034.9,628.7h0.5c0.5,0,0.8-0.3,0.8-0.5c0-0.3-0.3-0.5-0.8-0.5h-0.8v1.1H1034.9z M1032.5,629
		c0-1.6,1.3-2.9,2.9-2.9c1.6,0,2.9,1.3,2.9,2.9s-1.3,2.9-2.9,2.9c-1.5,0.1-2.9-1.1-2.9-2.7C1032.5,629.1,1032.5,629,1032.5,629
		 M1038.2,629c0-1.3-1.1-2.4-2.4-2.4c-1.3,0-2.4,1.1-2.4,2.4s1.1,2.4,2.4,2.4l0,0C1037.1,631.6,1038.2,630.6,1038.2,629
		 M942.1,664.7c-6.3-0.1-11.3-5.2-11.2-11.5c0,0,0,0,0,0c-0.1-6.4,4.8-11.7,11.2-12c6.2,0.1,11.2,5.2,11.2,11.5
		C953.5,659.1,948.5,664.5,942.1,664.7 M941.8,638c-8.3,0-14.9,6.7-14.9,14.9s6.7,14.9,14.9,14.9s14.9-6.7,14.9-14.9l0,0
		c0.1-8.1-6.4-14.8-14.6-14.9C942.1,638,941.9,638,941.8,638 M913.2,667.4h3.7v-16.8c0-2.1,0.7-4.2,1.9-5.9c1.6-1.7,3.8-2.7,6.1-2.9
		V638c-3.2,0.3-6.4,0.8-8,4.8v-4.3h-3.7V667.4z M892.7,664.7c-6.3-0.1-11.3-5.2-11.2-11.5c0,0,0,0,0,0c-0.1-6.4,4.8-11.7,11.2-12
		c6.2,0.1,11.2,5.2,11.2,11.5C903.9,660.2,898.3,664.7,892.7,664.7 M892.7,638c-8.3,0-14.9,6.7-14.9,14.9s6.7,14.9,14.9,14.9
		s14.9-6.7,14.9-14.9c0,0,0,0,0,0C907.7,644.7,901,638,892.7,638C892.7,638,892.7,638,892.7,638 M857.2,664.7
		c-6.4,0.1-11.6-4.9-11.7-11.3c0-0.2,0-0.3,0-0.5c-0.2-6.3,4.7-11.5,10.9-11.7c0.3,0,0.5,0,0.8,0c6.5,0.1,11.6,5.5,11.5,12
		C868.5,659.5,863.5,664.6,857.2,664.7 M871.9,628.4h-3.5v14.9c-2.6-3.6-6.8-5.7-11.2-5.6c-9.3,0.3-15.5,7.5-15.5,15.2
		c0.1,8.3,6.8,15,15.1,15c0.1,0,0.2,0,0.3,0c4.4,0,8.6-2.1,11.2-5.6v5.1h3.7v-39H871.9z M973.3,637c4.8-1.9,11.2-2.9,14.4-3.5
		c0.9,0,1.7-0.5,2.1-1.3c3.3-5.5,9.6-8.7,16-8c5.8,0.5,11,3.6,14.4,8.3c0.6,0.8,1.5,1.3,2.4,1.6c1.9,0.4,3.8,0.9,5.6,1.6
		c1.1,0.3,1.6,0.3,1.3-0.5c-8.1-16-27.6-22.5-43.6-14.4c-6.3,3.2-11.4,8.3-14.5,14.7C970.9,637,971.2,637.8,973.3,637 M1031.7,653.5
		c-2.4-1.3-5-2.2-7.7-2.7c-0.6-0.1-1.3,0.2-1.6,0.8c-3.3,6-9.8,9.4-16.5,8.8c-6-0.5-11.5-3.6-15-8.5c-0.7-1.1-2-1.6-3.2-1.3
		c-3.7,0.5-11.2,1.9-16.3,4.3l-0.3,0.3c-1.6,0.8-2.1,1.6-1.6,4c5,17.1,22.9,26.9,40,21.9c11.7-3.4,20.5-13.1,22.7-25.1
		C1032.5,654.3,1032.3,653.8,1031.7,653.5 M996.5,640.2c0-5,4.1-9.1,9.1-9.1c0.3,0,0.7,0,1,0.1c5.6,0.5,10.1,5.3,10.1,10.7
		c0,5-4.1,9.1-9.1,9.1c-0.3,0-0.7,0-1-0.1C1001,650.5,996.6,645.8,996.5,640.2"/>
</g>
</svg>
