<?xml version="1.0" encoding="utf-8"?>
<!-- Generator: Adobe Illustrator 25.1.0, SVG Export Plug-In . SVG Version: 6.00 Build 0)  -->
<svg version="1.1" id="svg2" xmlns:svg="http://www.w3.org/2000/svg"
	 xmlns="http://www.w3.org/2000/svg" xmlns:xlink="http://www.w3.org/1999/xlink" x="0px" y="0px" viewBox="0 0 500 120"
	 style="enable-background:new 0 0 500 120;" xml:space="preserve">
<style type="text/css">
	.st0{fill:#231F20;}
	.st1{fill:#1D4492;}
</style>
<g id="g12" transform="matrix(1.25,0,0,-1.25,-180.6026,277.80638)">
	<path id="path70" class="st0" d="M533,217c-1.2-1.2-1.8-2.7-1.8-4.4c0-1.7,0.6-3.2,1.8-4.4c1.2-1.2,2.6-1.8,4.4-1.8
		s3.2,0.6,4.4,1.8c1.2,1.2,1.8,2.7,1.8,4.4c0,1.7-0.6,3.2-1.8,4.4c-1.2,1.2-2.7,1.8-4.4,1.8C535.6,218.8,534.2,218.2,533,217z
		 M542.4,207.5c-1.4-1.4-3.1-2.1-5.1-2.1c-2,0-3.7,0.7-5.1,2.1c-1.4,1.4-2.1,3.1-2.1,5.1c0,2,0.7,3.7,2.1,5c1.4,1.4,3,2.1,5,2.1
		c2,0,3.7-0.7,5.1-2.1c1.4-1.4,2.1-3.1,2.1-5C544.5,210.6,543.8,208.9,542.4,207.5z M538.7,215.3c-0.3,0.2-0.9,0.3-1.7,0.3h-1.2
		v-2.8h1.3c0.6,0,1,0.1,1.3,0.2c0.5,0.2,0.8,0.6,0.8,1.2C539.2,214.7,539,215.1,538.7,215.3L538.7,215.3z M537.2,216.5
		c1,0,1.7-0.1,2.1-0.3c0.8-0.3,1.2-1,1.2-2c0-0.7-0.3-1.2-0.8-1.5c-0.3-0.2-0.7-0.3-1.1-0.4c0.6-0.1,1.1-0.4,1.4-0.8
		c0.3-0.4,0.4-0.8,0.4-1.2v-0.6c0-0.2,0-0.4,0-0.6c0-0.2,0.1-0.3,0.1-0.4l0-0.1h-1.3c0,0,0,0.1,0,0.1s0,0.1,0,0.1l0,0.3v0.6
		c0,0.9-0.2,1.5-0.7,1.8c-0.3,0.2-0.8,0.3-1.5,0.3h-1.1v-3.1h-1.4v7.9L537.2,216.5"/>
	<path id="path74" class="st1" d="M188.5,159.6v12.1h-24.9v46.9h-19.1v-59H188.5"/>
	<path id="path78" class="st1" d="M243.2,159.6v11.7h-27.4v13h25.9v11.1h-25.9v11.7h27.4v11.5h-46.4v-59L243.2,159.6"/>
	<path id="path80" class="st1" d="M253.4,159.6h19.1v59h-19.1V159.6z"/>
	<path id="path84" class="st1" d="M338.9,206.9v11.6h-58.5v-11.6h19.8v-47.4h18.9v47.4H338.9"/>
	<path id="path88" class="st1" d="M466,159.6v11.7h-27.4v13h25.9v11.1h-25.9v11.7H466v11.5h-46.4v-59L466,159.6"/>
	<path id="path92" class="st1" d="M531.6,159.6l-15.9,19c-1.8,2.2-3.8,4.4-5.8,6.7c10,1.9,16.6,8.4,16.6,16.4
		c0,12.5-10.7,17.5-28.3,17.5c-9,0-17.1-0.1-23.5-0.4v-59.2H492v23.2h0.7l17.8-23.2L531.6,159.6L531.6,159.6z M508.3,200.6
		c0-5-4.7-8.1-12-8.1c-1.6,0-3.4,0.1-4.3,0.2v15.2c1,0.1,3,0.2,4.8,0.2C504.9,208,508.3,205.2,508.3,200.6"/>
	<path id="path96" class="st1" d="M410.1,159.6v58.8h-16.5v-19.4c0-5.6,0.2-13.3,0.8-18.4c-2.6,4.5-5.7,9.6-9,14.5l-16.3,23.3h-22
		v-58.8h16.5V182c0,5.6-0.2,11.5-0.5,15.9c2-3.8,4.5-8.4,7.7-12.9l17.5-25.4H410.1"/>
	<path id="path100" class="st0" d="M253.4,146.5h5.1v-2.4c0.4,0.4,1.5,0.9,3.1,1.5c1.6,0.6,3.5,0.9,5.6,0.9c0.1,0,0.3,0,0.5,0
		c0.2,0,3.1,0,3.6,0v-2.2c-0.3,0-3,0-3.3,0c-0.3,0-0.5,0-0.9,0c-2.7,0-4.8-0.3-6.2-1c-1.5-0.7-2.2-1.5-2.2-2.3v-7.5h-5.4
		L253.4,146.5"/>
	<path id="path104" class="st0" d="M297.5,136.8c1.3,1.1,2,2.2,2,3.5c0,1.2-0.5,2.1-1.4,2.8c-1.5,1.1-4,1.7-7.7,1.7
		c-3.2,0-5.6-0.5-7.1-1.5c-1.5-1-2.2-2.2-2.2-3.5c0-1.3,0.7-2.4,2.2-3.3c1.5-0.9,3.8-1.3,7-1.3C293.9,135.2,296.2,135.7,297.5,136.8
		L297.5,136.8z M300.8,145c2.8-1.1,4.2-2.6,4.2-4.7c0-2-1.2-3.7-3.7-5c-2.4-1.3-6.3-2-11.5-2c-4.3,0-7.7,0.6-10.3,1.7
		c-2.5,1.2-3.8,2.7-3.8,4.7c0,2.1,1.3,3.8,4,5c2.7,1.2,6.3,1.9,10.8,1.9C294.6,146.6,298,146.1,300.8,145"/>
	<path id="path108" class="st0" d="M335,136.5c1.6,0.8,2.5,2,2.5,3.7c0,1-0.4,1.8-1.1,2.6c-1.4,1.4-3.9,2.1-7.5,2.1
		s-6.1-0.7-7.5-2.2c-0.7-0.8-1.1-1.8-1.1-2.9c0-1,0.4-1.8,1.1-2.4c1.4-1.3,3.9-1.9,7.5-1.9C331.3,135.3,333.4,135.7,335,136.5
		L335,136.5z M315.2,146.5h5.1v-2c1.1,0.6,2.2,1,3.5,1.3c1.8,0.5,3.9,0.7,6.3,0.7c3.6,0,6.6-0.5,9-1.6c2.5-1.1,3.7-2.6,3.7-4.6
		c0-2.7-1.8-4.6-5.3-5.8c-2.3-0.7-4.9-1.1-7.9-1.1c-2.4,0-4.4,0.2-5.9,0.6c-0.9,0.2-2,0.6-3.2,1.2v-6.3h-5.3L315.2,146.5"/>
	<path id="path112" class="st0" d="M372.9,145.9c2.1-0.4,3.7-0.9,4.8-1.6c1.1-0.6,1.8-1.4,2.1-2.2c0.3-0.6,0.5-1.5,0.5-2.7h-23
		c0.1-1.3,0.9-2.3,2.3-3c1.4-0.8,3.6-1.1,6.5-1.1c2.8,0,4.9,0.4,6.6,1.1c0.9,0.4,1.6,0.9,2,1.5h5.2c-0.1-0.5-0.6-1-1.4-1.5
		c-0.8-0.6-1.6-1-2.6-1.4c-1.6-0.6-3.6-1-5.9-1.3c-1.3-0.1-2.7-0.2-4.3-0.2c-3.9,0-7.2,0.6-9.9,1.7c-2.7,1.1-4.1,2.7-4.1,4.7
		c0,2,1.4,3.6,4.1,4.9c2.7,1.2,6.3,1.9,10.7,1.9C368.7,146.6,370.8,146.3,372.9,145.9L372.9,145.9z M374.9,141.1
		c-0.2,0.9-0.7,1.6-1.5,2.2c-1.4,1-3.8,1.5-7.2,1.5c-2.4,0-4.5-0.3-6.1-1c-1.6-0.7-2.5-1.6-2.6-2.6L374.9,141.1"/>
	<path id="path116" class="st0" d="M392.3,146.5l6.2-10.1l6.1,10.1h5.9l6.1-10l6.6,10h5.3l-9.3-13h-5.5l-6.4,10l-6.2-10h-5.5
		l-9.2,13H392.3"/>
	<path id="path120" class="st0" d="M443.5,135.7c1.1-0.3,2.4-0.5,4-0.5c1.8,0,3.6,0.2,5.4,0.5c2.9,0.6,4.4,1.5,4.4,2.8v1.7
		c-0.7-0.2-1.5-0.3-2.5-0.4c-1-0.1-2-0.2-3-0.2l-3.2-0.2c-1.9-0.1-3.4-0.3-4.3-0.5c-1.6-0.4-2.4-0.9-2.4-1.7
		C441.8,136.6,442.4,136.1,443.5,135.7L443.5,135.7z M454.6,141.4c1.2,0.1,2,0.3,2.4,0.6c0.2,0.2,0.3,0.5,0.3,0.8
		c0,0.7-0.7,1.2-1.9,1.5c-1.3,0.3-3.1,0.5-5.5,0.5c-2.8,0-4.7-0.3-5.9-0.9c-0.7-0.3-1.1-0.8-1.3-1.5h-4.9c0.1,1.5,1.4,2.6,3.8,3.2
		c2.4,0.6,5.2,0.9,8.4,0.9c3.7,0,6.7-0.3,9-0.8c2.3-0.6,3.4-1.4,3.4-2.6V136c0-0.2,0.1-0.4,0.3-0.5c0.2-0.1,0.7-0.2,1.5-0.2
		c0.2,0,0.5,0,0.8,0c0.3,0,0.6,0,0.9,0.1v-1.5c-0.8-0.1-1.5-0.2-1.9-0.2c-0.4,0-1,0-1.8,0c-1.8,0-3.1,0.3-4,0.8
		c-0.4,0.3-0.7,0.7-0.9,1.1c-1.1-0.6-2.6-1-4.6-1.4c-2-0.4-4.2-0.6-6.7-0.6c-2.9,0-5.3,0.3-7.1,1c-1.8,0.7-2.8,1.6-2.8,2.6
		c0,1.2,0.9,2,2.7,2.7c1.8,0.6,4.2,1,7.1,1.2L454.6,141.4"/>
	<path id="path124" class="st0" d="M495.4,146.5h5.8c-0.7-0.8-2.6-2.9-5.2-5.7c-1.9-2.1-3.5-3.9-4.8-5.2c-3-3.2-5.2-5.1-6.5-5.8
		c-1.3-0.7-3.4-1-6.5-1c-0.7,0-1.3,0-1.7,0c-0.4,0-0.9,0.1-1.5,0.1v1.9c0.9-0.1,1.6-0.2,2-0.2c0.4,0,0.8,0,1.1,0
		c1,0,1.7,0.1,2.1,0.2c0.5,0.1,0.9,0.3,1.2,0.5c0.1,0.1,0.5,0.4,1.1,1c0.6,0.6,1,1,1.3,1.3L472,146.5h6l8.7-10.4L495.4,146.5"/>
	<path id="path128" class="st0" d="M511.3,137.8c0.2-0.7,0.6-1.2,1.3-1.6c1.3-0.7,3.6-1,6.9-1c2,0,3.7,0.2,5.2,0.5
		c1.5,0.3,2.2,0.9,2.2,1.6c0,0.5-0.6,0.9-1.8,1.2c-0.8,0.2-2.3,0.4-4.5,0.6l-4.2,0.4c-2.7,0.3-4.7,0.6-5.9,0.9
		c-2.2,0.6-3.4,1.3-3.4,2.3c0,1.2,1.1,2.1,3.2,2.9c2.2,0.7,5,1.1,8.6,1.1c4.8,0,8.2-0.5,10.2-1.6c1.3-0.7,2-1.4,1.9-2.3h-5
		c-0.1,0.5-0.5,0.9-1.3,1.3c-1.2,0.5-3.3,0.8-6.3,0.8c-2,0-3.5-0.2-4.6-0.5c-1-0.3-1.5-0.7-1.5-1.2c0-0.5,0.7-1,2-1.3
		c0.8-0.2,1.9-0.4,3.4-0.5l3.5-0.3c3.8-0.4,6.3-0.7,7.6-1.1c2-0.5,3.1-1.4,3.1-2.5c0-1.1-1.1-2.1-3.2-2.9c-2.1-0.8-5.3-1.2-9.7-1.2
		c-4.7,0-8,0.4-10,1.3c-1.9,0.8-3,1.9-3.1,3.1H511.3"/>
</g>
</svg>
