<?xml version="1.0" encoding="UTF-8" standalone="no"?>
<svg
   xmlns:svg="http://www.w3.org/2000/svg"
   xmlns="http://www.w3.org/2000/svg"
   version="1.1"
   width="789.51001"
   height="185.1132"
   id="svg3292">
  <defs
     id="defs3294" />
  <g
     transform="translate(-50.959295,-422.66273)"
     id="layer1">
    <path
       d="m 68.39777,561.03673 c -1.128889,-1.34816 -2.127833,-2.62324 -3.061804,-3.90644 l 0,50.64564 42.637844,-23.09752 c -1.55932,-0.3411 -3.13489,-0.72282 -4.73483,-1.18574 -19.101754,-5.52263 -30.739856,-17.55055 -34.84121,-22.45594 m 114.50496,-25.89945 c -0.95834,1.08829 -1.98165,2.12784 -3.04556,3.11866 0.12994,1.17762 0.21928,2.33087 0.28425,3.46788 0.96646,-2.01414 1.90855,-4.20694 2.76131,-6.58654 M 78.3466,515.9137 c -1.843579,-3.19986 -3.411028,-6.56216 -4.637373,-10.04629 l 0,0 c -3.41915,-9.75391 -3.96329,-19.55656 -1.721757,-28.61202 -1.640541,2.32275 -3.224234,4.85665 -4.62113,7.65045 0,0.007 0,0.007 0,0.007 -0.795908,1.55934 -1.437505,3.01307 -2.030374,4.40997 l 0,46.95849 c 2.631364,-6.61902 7.12255,-13.5629 13.010634,-20.36871 m 71.02247,26.42796 c 7.82101,-1.09641 14.69179,-3.82522 20.31999,-7.86973 -1.3969,-6.65963 -4.03639,-13.79031 -7.76415,-20.95346 -3.58158,1.99789 -7.65045,3.39479 -12.11728,4.02014 -15.05725,2.09535 -31.01599,-4.96224 -40.37195,-16.63282 -7.11443,4.97847 -13.65223,10.45236 -19.207333,16.07243 13.156823,17.65614 36.822853,28.48209 59.140723,25.36344 M 164.605,498.50121 c 3.0618,-5.04345 3.54097,-11.24826 1.34817,-17.50181 0,-0.007 0,-0.007 0,-0.007 -0.17867,-0.53602 -0.42232,-1.0558 -0.6416,-1.5837 -4.31251,-0.0813 -9.3722,0.58475 -14.91919,1.97353 5.27898,5.56322 9.94071,11.46755 13.92025,17.51806 0.0974,-0.13806 0.19491,-0.268 0.29237,-0.39795 M 86.346272,451.5346 c 4.970355,-2.75312 9.705187,-5.36012 18.159658,-7.66662 l -39.169964,-21.20525 0,47.85993 c 9.014859,-12.06043 19.540316,-18.16781 21.010306,-18.98806 m 62.161918,56.72053 c 3.24048,-0.4548 6.17234,-1.4375 8.73874,-2.85064 -4.66986,-7.34184 -10.39552,-14.4725 -16.97393,-20.88849 -1.12077,0.40608 -2.24153,0.83651 -3.37854,1.29944 -6.67587,2.69634 -13.30301,6.09925 -19.62966,9.9732 7.34996,8.81182 19.62966,14.09079 31.24339,12.46649 m -36.53048,-21.60318 c 0.12994,0.35735 0.29237,0.69845 0.43044,1.04768 6.41598,-3.87395 13.14058,-7.32559 20.01948,-10.17623 -5.72565,-4.62926 -11.5244,-8.3083 -17.12011,-10.98842 -0.72281,0.82025 -1.40502,1.68112 -1.97352,2.61512 -3.06993,5.03536 -3.54909,11.24019 -1.35629,17.49374 l 0,0.007 m -26.865904,22.04235 c 5.693168,-5.57134 12.230971,-10.93153 19.296674,-15.82066 -0.46293,-1.02332 -0.90149,-2.05474 -1.27508,-3.11867 0,-0.007 0,-0.007 0,0 -3.134894,-8.94176 -2.34711,-17.99722 2.20905,-25.46088 0.26801,-0.44663 0.58475,-0.84463 0.87712,-1.27513 -5.19776,-1.5105 -10.038166,-2.006 -14.261344,-1.39687 -2.615121,2.34712 -4.921626,5.011 -6.765205,8.04025 -3.443514,5.63637 -5.181514,12.06048 -5.181514,18.77696 0,4.69422 0.844635,9.51839 2.542028,14.3588 0.70657,2.02225 1.599935,3.99577 2.558271,5.92056 m 65.548584,42.89774 c -24.94923,3.48413 -51.417184,-8.21895 -66.823659,-27.60496 -5.790626,7.00074 -9.818887,13.99334 -11.264514,20.20629 -0.576626,2.44456 -0.682205,4.59676 -0.397952,6.47282 1.015186,1.38878 2.127831,2.80193 3.402906,4.32876 3.565336,4.26379 13.63599,14.67554 30.260689,19.48347 5.87184,1.6974 11.39446,2.38772 16.3242,2.48517 l 48.04677,-26.02939 c 0.37359,-1.90042 0.59287,-3.9308 0.60911,-6.05051 -5.91244,3.37854 -12.70201,5.6688 -20.15755,6.70835 M 129.42268,459.3881 c -1.81921,0.268 -3.54909,0.68225 -5.17339,1.24263 6.09924,3.42725 12.28782,7.86162 18.31397,13.21363 4.20693,-1.29945 8.21895,-2.24153 12.01169,-2.85065 L 132.6794,459.13635 c -1.08016,0 -2.17656,0.11375 -3.25672,0.25175 m 61.83707,80.17539 44.95247,-24.34011 -43.75049,-23.70665 c 6.14797,19.21546 3.43539,35.83204 -1.20198,48.04676 m -75.50554,-88.35376 c -0.22741,0 -0.44669,0 -0.66597,0 -3.14302,0.45487 -6.1236,1.17762 -8.94988,2.15225 2.43644,0.56037 4.9135,1.34 7.43116,2.28212 1.9654,-1.35625 4.13384,-2.47712 6.44035,-3.39475 l -2.29838,-1.2345 c -0.6416,0.0812 -1.31569,0.0812 -1.95728,0.17863 m 56.84234,52.18063 c -0.90961,1.48624 -1.97352,2.8344 -3.11053,4.1176 3.51661,6.48908 6.23731,13.01064 8.05652,19.34541 0.72282,-0.95834 1.42939,-1.9248 2.06286,-2.95623 5.70941,-9.3722 6.70024,-20.82351 2.89125,-32.33979 -0.25988,-0.36547 -0.48729,-0.7553 -0.64972,-1.18575 -0.33298,-0.96645 -0.76342,-1.91666 -1.16137,-2.86689 -0.43856,-0.40607 -0.79591,-0.9096 -1.03955,-1.4781 -0.38171,-0.8284 -0.86088,-1.56745 -1.45375,-2.21717 l -2.15219,-1.1695 c 1.45374,7.35807 0.30861,14.59434 -3.44352,20.75042 m -107.723509,34.0372 c -2.046617,-5.05158 -3.524729,-11.33762 -3.808981,-13.77407 -0.674085,-5.83123 -0.674085,-5.83123 -0.730935,-11.58936 -0.01624,-1.79487 0.186795,-4.4181 0.503532,-6.3835 0.730935,-4.50743 1.591814,-9.52652 4.499309,-16.34045 l 0,-18.80127 c -2.265897,3.0212 -4.434336,6.39163 -6.334766,10.16812 -5.278972,10.46861 -6.505318,17.98098 -7.414926,23.463 -0.397952,2.52578 -0.64972,5.66068 -0.625355,7.99155 0.06498,6.18857 0.06498,6.3104 0.804028,12.57208 0.438561,3.7765 2.517664,12.23097 5.295215,18.23276 2.152196,4.69421 4.141963,8.32452 6.562168,11.84925 0.203037,0.38171 0.438561,0.72281 0.722814,1.02331 0.308616,0.43856 0.657841,0.869 0.990822,1.30756 l 0,-20.84787 c -0.154309,0.38171 -0.332981,0.7553 -0.462925,1.12889 m 55.575389,-86.63196 c 0.49541,0 1.02331,0 1.54308,0 0.9421,0 1.87607,-0.0125 2.81816,0.0125 -1.67303,0.38163 -3.26484,0.91763 -4.7998,1.51863 l 12.66953,6.87087 c 9.92447,-0.31675 19.93827,4.1095 26.66287,11.23199 -1.5512,0.14619 -3.14302,0.36547 -4.76732,0.62536 l 21.46512,11.62998 c -0.0568,-0.23553 -0.0812,-0.47917 -0.12995,-0.72282 0.88525,0.55227 1.64054,1.1695 2.28214,1.89232 l 14.26947,7.72353 c -0.1868,-0.54413 -0.32486,-1.08016 -0.50353,-1.6243 -0.1137,-0.30861 -0.25177,-0.60098 -0.43044,-0.89336 -0.14619,-0.4548 -0.26801,-0.90149 -0.43044,-1.35629 -4.1176,-11.72743 -11.99545,-22.02553 -22.00113,-29.91141 -0.25989,-0.38175 -0.56851,-0.731 -0.95022,-1.02337 -15.35774,-11.898 -30.79671,-14.59438 -38.63395,-15.14663 -0.42232,0 -0.81215,0 -1.21823,-0.0813 -4.71046,-0.3655 -9.46154,-0.268 -14.14764,0.38975 -0.27613,0 -0.56038,0.0975 -0.84464,0.13 -2.01413,0.28425 -3.76837,0.60913 -5.17339,0.934 -1.29132,0.3005 -2.48518,0.60913 -3.62219,0.90963 l 13.20556,7.16312 c 0.91772,-0.09 1.83545,-0.195 2.73694,-0.25175 m 49.7604,100.15811 c -0.42232,2.20092 -1.08016,4.26378 -2.03037,6.09112 -0.32486,0.63348 -0.48729,1.30756 -0.51166,1.95728 -1.39689,1.38877 -2.38772,2.22528 -2.67197,2.47706 -7.66669,6.40785 -13.66847,9.75391 -22.96759,12.76698 -3.43539,1.11264 -10.59855,2.9481 -19.86518,2.73694 l -14.18825,7.69106 c 17.25006,3.76025 31.36522,0.28425 36.94468,-1.51872 10.44425,-3.37854 17.51807,-7.30934 26.07813,-14.49686 1.72988,-1.43752 10.75286,-9.30724 16.97392,-21.64379 1.14513,-2.24965 2.2659,-4.74295 3.28921,-7.45554 l -21.05092,11.39447 M 68.39777,561.03673 c -1.128889,-1.34816 -2.127833,-2.62324 -3.061804,-3.90644 l 0,50.64564 42.637844,-23.09752 c -1.55932,-0.3411 -3.13489,-0.72282 -4.73483,-1.18574 -19.101754,-5.52263 -30.739856,-17.55055 -34.84121,-22.45594 m 114.50496,-25.89945 c -0.95834,1.08829 -1.98165,2.12784 -3.04556,3.11866 0.12994,1.17762 0.21928,2.33087 0.28425,3.46788 0.96646,-2.01414 1.90855,-4.20694 2.76131,-6.58654 M 78.3466,515.9137 c -1.843579,-3.19986 -3.411028,-6.56216 -4.637373,-10.04629 l 0,0 c -3.41915,-9.75391 -3.96329,-19.55656 -1.721757,-28.61202 -1.640541,2.32275 -3.224234,4.85665 -4.62113,7.65045 0,0.007 0,0.007 0,0.007 -0.795908,1.55934 -1.437505,3.01307 -2.030374,4.40997 l 0,46.95849 c 2.631364,-6.61902 7.12255,-13.5629 13.010634,-20.36871 m 71.02247,26.42796 c 7.82101,-1.09641 14.69179,-3.82522 20.31999,-7.86973 -1.3969,-6.65963 -4.03639,-13.79031 -7.76415,-20.95346 -3.58158,1.99789 -7.65045,3.39479 -12.11728,4.02014 -15.05725,2.09535 -31.01599,-4.96224 -40.37195,-16.63282 -7.11443,4.97847 -13.65223,10.45236 -19.207333,16.07243 13.156823,17.65614 36.822853,28.48209 59.140723,25.36344 M 164.605,498.50121 c 3.0618,-5.04345 3.54097,-11.24826 1.34817,-17.50181 0,-0.007 0,-0.007 0,-0.007 -0.17867,-0.53602 -0.42232,-1.0558 -0.6416,-1.5837 -4.31251,-0.0813 -9.3722,0.58475 -14.91919,1.97353 5.27898,5.56322 9.94071,11.46755 13.92025,17.51806 0.0974,-0.13806 0.19491,-0.268 0.29237,-0.39795 M 86.346272,451.5346 c 4.970355,-2.75312 9.705187,-5.36012 18.159658,-7.66662 l -39.169964,-21.20525 0,47.85993 c 9.014859,-12.06043 19.540316,-18.16781 21.010306,-18.98806 m 62.161918,56.72053 c 3.24048,-0.4548 6.17234,-1.4375 8.73874,-2.85064 -4.66986,-7.34184 -10.39552,-14.4725 -16.97393,-20.88849 -1.12077,0.40608 -2.24153,0.83651 -3.37854,1.29944 -6.67587,2.69634 -13.30301,6.09925 -19.62966,9.9732 7.34996,8.81182 19.62966,14.09079 31.24339,12.46649 m -36.53048,-21.60318 c 0.12994,0.35735 0.29237,0.69845 0.43044,1.04768 6.41598,-3.87395 13.14058,-7.32559 20.01948,-10.17623 -5.72565,-4.62926 -11.5244,-8.3083 -17.12011,-10.98842 -0.72281,0.82025 -1.40502,1.68112 -1.97352,2.61512 -3.06993,5.03536 -3.54909,11.24019 -1.35629,17.49374 l 0,0.007 m -26.865904,22.04235 c 5.693168,-5.57134 12.230971,-10.93153 19.296674,-15.82066 -0.46293,-1.02332 -0.90149,-2.05474 -1.27508,-3.11867 0,-0.007 0,-0.007 0,0 -3.134894,-8.94176 -2.34711,-17.99722 2.20905,-25.46088 0.26801,-0.44663 0.58475,-0.84463 0.87712,-1.27513 -5.19776,-1.5105 -10.038166,-2.006 -14.261344,-1.39687 -2.615121,2.34712 -4.921626,5.011 -6.765205,8.04025 -3.443514,5.63637 -5.181514,12.06048 -5.181514,18.77696 0,4.69422 0.844635,9.51839 2.542028,14.3588 0.70657,2.02225 1.599935,3.99577 2.558271,5.92056 m 65.548584,42.89774 c -24.94923,3.48413 -51.417184,-8.21895 -66.823659,-27.60496 -5.790626,7.00074 -9.818887,13.99334 -11.264514,20.20629 -0.576626,2.44456 -0.682205,4.59676 -0.397952,6.47282 1.015186,1.38878 2.127831,2.80193 3.402906,4.32876 3.565336,4.26379 13.63599,14.67554 30.260689,19.48347 5.87184,1.6974 11.39446,2.38772 16.3242,2.48517 l 48.04677,-26.02939 c 0.37359,-1.90042 0.59287,-3.9308 0.60911,-6.05051 -5.91244,3.37854 -12.70201,5.6688 -20.15755,6.70835 M 129.42268,459.3881 c -1.81921,0.268 -3.54909,0.68225 -5.17339,1.24263 6.09924,3.42725 12.28782,7.86162 18.31397,13.21363 4.20693,-1.29945 8.21895,-2.24153 12.01169,-2.85065 L 132.6794,459.13635 c -1.08016,0 -2.17656,0.11375 -3.25672,0.25175 m 61.83707,80.17539 44.95247,-24.34011 -43.75049,-23.70665 c 6.14797,19.21546 3.43539,35.83204 -1.20198,48.04676 m -75.50554,-88.35376 c -0.22741,0 -0.44669,0 -0.66597,0 -3.14302,0.45487 -6.1236,1.17762 -8.94988,2.15225 2.43644,0.56037 4.9135,1.34 7.43116,2.28212 1.9654,-1.35625 4.13384,-2.47712 6.44035,-3.39475 l -2.29838,-1.2345 c -0.6416,0.0812 -1.31569,0.0812 -1.95728,0.17863 m 56.84234,52.18063 c -0.90961,1.48624 -1.97352,2.8344 -3.11053,4.1176 3.51661,6.48908 6.23731,13.01064 8.05652,19.34541 0.72282,-0.95834 1.42939,-1.9248 2.06286,-2.95623 5.70941,-9.3722 6.70024,-20.82351 2.89125,-32.33979 -0.25988,-0.36547 -0.48729,-0.7553 -0.64972,-1.18575 -0.33298,-0.96645 -0.76342,-1.91666 -1.16137,-2.86689 -0.43856,-0.40607 -0.79591,-0.9096 -1.03955,-1.4781 -0.38171,-0.8284 -0.86088,-1.56745 -1.45375,-2.21717 l -2.15219,-1.1695 c 1.45374,7.35807 0.30861,14.59434 -3.44352,20.75042 m -107.723509,34.0372 c -2.046617,-5.05158 -3.524729,-11.33762 -3.808981,-13.77407 -0.674085,-5.83123 -0.674085,-5.83123 -0.730935,-11.58936 -0.01624,-1.79487 0.186795,-4.4181 0.503532,-6.3835 0.730935,-4.50743 1.591814,-9.52652 4.499309,-16.34045 l 0,-18.80127 c -2.265897,3.0212 -4.434336,6.39163 -6.334766,10.16812 -5.278972,10.46861 -6.505318,17.98098 -7.414926,23.463 -0.397952,2.52578 -0.64972,5.66068 -0.625355,7.99155 0.06498,6.18857 0.06498,6.3104 0.804028,12.57208 0.438561,3.7765 2.517664,12.23097 5.295215,18.23276 2.152196,4.69421 4.141963,8.32452 6.562168,11.84925 0.203037,0.38171 0.438561,0.72281 0.722814,1.02331 0.308616,0.43856 0.657841,0.869 0.990822,1.30756 l 0,-20.84787 c -0.154309,0.38171 -0.332981,0.7553 -0.462925,1.12889 m 55.575389,-86.63196 c 0.49541,0 1.02331,0 1.54308,0 0.9421,0 1.87607,-0.0125 2.81816,0.0125 -1.67303,0.38163 -3.26484,0.91763 -4.7998,1.51863 l 12.66953,6.87087 c 9.92447,-0.31675 19.93827,4.1095 26.66287,11.23199 -1.5512,0.14619 -3.14302,0.36547 -4.76732,0.62536 l 21.46512,11.62998 c -0.0568,-0.23553 -0.0812,-0.47917 -0.12995,-0.72282 0.88525,0.55227 1.64054,1.1695 2.28214,1.89232 l 14.26947,7.72353 c -0.1868,-0.54413 -0.32486,-1.08016 -0.50353,-1.6243 -0.1137,-0.30861 -0.25177,-0.60098 -0.43044,-0.89336 -0.14619,-0.4548 -0.26801,-0.90149 -0.43044,-1.35629 -4.1176,-11.72743 -11.99545,-22.02553 -22.00113,-29.91141 -0.25989,-0.38175 -0.56851,-0.731 -0.95022,-1.02337 -15.35774,-11.898 -30.79671,-14.59438 -38.63395,-15.14663 -0.42232,0 -0.81215,0 -1.21823,-0.0813 -4.71046,-0.3655 -9.46154,-0.268 -14.14764,0.38975 -0.27613,0 -0.56038,0.0975 -0.84464,0.13 -2.01413,0.28425 -3.76837,0.60913 -5.17339,0.934 -1.29132,0.3005 -2.48518,0.60913 -3.62219,0.90963 l 13.20556,7.16312 c 0.91772,-0.09 1.83545,-0.195 2.73694,-0.25175 m 49.7604,100.15811 c -0.42232,2.20092 -1.08016,4.26378 -2.03037,6.09112 -0.32486,0.63348 -0.48729,1.30756 -0.51166,1.95728 -1.39689,1.38877 -2.38772,2.22528 -2.67197,2.47706 -7.66669,6.40785 -13.66847,9.75391 -22.96759,12.76698 -3.43539,1.11264 -10.59855,2.9481 -19.86518,2.73694 l -14.18825,7.69106 c 17.25006,3.76025 31.36522,0.28425 36.94468,-1.51872 10.44425,-3.37854 17.51807,-7.30934 26.07813,-14.49686 1.72988,-1.43752 10.75286,-9.30724 16.97392,-21.64379 1.14513,-2.24965 2.2659,-4.74295 3.28921,-7.45554 l -21.05092,11.39447 m 66.63545,-109.64061 0,28.21875 32.90625,0 0,117.40625 36.8125,0 0,-117.40625 32.9375,0 0,-28.21875 -102.65625,0 z m 161.59375,0.375 0,29.53125 33.21875,0 0,-29.53125 -33.21875,0 z m 191.71875,0.65625 0,145.59375 17.1875,0 6.15625,-14.71875 c 6.5378,9.82702 14.91557,15.9375 27.8125,15.9375 27.808,0 37.625,-30.27765 37.625,-53.78124 0,-29.6516 -12.25239,-52.53126 -35.1875,-52.53126 -6.72459,0 -15.33703,3.45338 -20.03125,8.375 l -0.40625,0 0,-48.875 -33.15625,0 z m 97.40625,0 0,145.59375 33.125,0 0,-145.59375 -33.125,0 z m 87.34375,37.40625 c -30.47185,0 -45.59375,24.53505 -45.59375,53.59375 0,28.40899 14.30992,53.96875 46,53.96875 29.4729,0 39.69561,-23.2883 41.125,-28.03125 l -22.28125,-8.1875 c -2.06285,8.40574 -8.79782,14.15625 -16.78125,14.15625 -13.12434,0 -14.9375,-15.35202 -14.9375,-24.375 l 55.4375,0 0,-6.93749 c 0,-26.76846 -11.05129,-54.18751 -42.96875,-54.18751 z m -385.125,3.09375 c -13.08373,0 -27.79802,5.07994 -31.875,17.96875 l -0.4375,0 0,-15.53125 -32.5,0 0,102.65625 33.125,0 0,-66.4375 c 3.69527,-5.11654 7.17351,-8 18.21875,-8 4.71046,0 8.96132,1.23446 13.46875,2.875 l 0,-33.53125 z m 115.84375,0 c -11.8655,0 -22.28175,5.68076 -29.25,16.125 l -0.40625,0 0,-13.6875 -33.125,0 0,102.65625 33.125,0 0,-75.0625 1.84375,-2.4375 c 2.2659,-2.86689 5.12587,-4.28125 8.59375,-4.28125 6.14797,0 7.96875,3.68924 7.96875,9.1875 l 0,72.59375 33.125,0 0,-75.0625 1.84375,-2.4375 c 2.25777,-2.86689 5.08527,-4.28125 8.59375,-4.28125 6.12361,0 7.96875,3.68924 7.96875,9.1875 l 0,72.59376 33.125,0 0,-83.21876 c 0,-14.71615 -9.82323,-21.875 -23.09375,-21.875 -11.8655,0 -22.28175,5.68076 -29.25,16.125 l -0.40625,0 c -0.61724,-9.83512 -10.6262,-16.125 -20.65625,-16.125 z m -107.125,2.4375 0,102.65625 33.15625,0 0,-102.65625 -33.15625,0 z m 376.21875,15.3125 c 11.46755,0 12.27383,11.06476 12.46875,20.65625 l -24.75,0 c 0,-9.59149 2.87656,-20.65625 12.28125,-20.65625 z m -140.34375,0.625 c 10.21683,0 10.1875,10.64383 10.1875,31.09376 l 0,7.78125 c 0,19.0043 -1.21273,28.21875 -10.40625,28.21875 -6.31853,0 -11.43662,-4.70497 -10.84375,-13.28125 l 0,-47.87501 1.84375,-1.8125 c 2.0385,-1.64866 5.11738,-4.125 9.21875,-4.125 z m -429.46875,67.84376 c -5.00285,0 -9.0625,3.91082 -9.0625,8.71875 0,4.90538 4.05965,8.84375 9.0625,8.84375 4.98659,0 9,-3.93837 9,-8.84375 0,-4.80793 -4.01341,-8.71875 -9,-8.71875 z m 626.59375,0.99999 c -5.01097,0 -9.0625,3.94208 -9.0625,8.75 0,4.88914 4.05153,8.84376 9.0625,8.84376 4.97847,0 8.96875,-3.95462 8.96875,-8.84376 0,-4.80792 -3.99028,-8.75 -8.96875,-8.75 z m -626.59375,0.71876 c 4.02013,0 7.3125,3.10168 7.3125,7 0,4.0039 -3.29237,7.125 -7.3125,7.125 -4.09324,0 -7.34375,-3.1211 -7.34375,-7.125 0,-3.89832 3.25051,-7 7.34375,-7 z m 626.59375,1.03124 c 4.02013,0 7.28125,3.1098 7.28125,7 0,4.00391 -3.26112,7.12501 -7.28125,7.12501 -4.10135,0 -7.34375,-3.1211 -7.34375,-7.12501 0,-3.8902 3.2424,-7 7.34375,-7 z m -629.96875,1.09375 0,9.84375 1.5,0 0,-4.53125 1.75,0 2.90625,4.53125 1.71875,0 -3.0625,-4.53125 c 1.81109,-0.0325 3.1875,-0.76147 3.1875,-2.71874 0,-0.81215 -0.38595,-1.70269 -1.125,-2.12501 -0.77155,-0.39792 -1.63224,-0.46875 -2.46875,-0.46875 l -4.40625,0 z m 626.5625,1.03126 0,9.84375 1.5,0 0,-4.53125 1.78125,0 2.90625,4.53125 1.71875,0 -3.0625,-4.53125 c 1.80297,-0.0487 3.15625,-0.76147 3.15625,-2.71875 0,-0.81215 -0.34658,-1.69457 -1.09375,-2.125 -0.76343,-0.39792 -1.62413,-0.46875 -2.46875,-0.46875 l -4.4375,0 z m -625.0625,0.0937 2.625,0 c 1.25883,0 2.375,0.16242 2.375,1.4375 0,1.77048 -1.94562,1.53125 -3.375,1.53125 l -1.625,0 0,-2.96875 z m 626.5625,1.03125 2.625,0 c 1.26695,0 2.40625,0.14617 2.40625,1.4375 0,1.75423 -1.97687,1.5 -3.40625,1.5 l -1.625,0 0,-2.9375 z"
       id="path148"
       style="fill:#005596;fill-opacity:1;fill-rule:nonzero;stroke:none" />
  </g>
</svg>
