<svg xmlns="http://www.w3.org/2000/svg" viewBox="0 0 1443 198" style="enable-background:new 0 0 1443 198" xml:space="preserve"><path d="M63 6c0-3.3-2.7-6-6-6H0v69s0-6 6.1-6H54c3.3 0 6 2.7 6 6v45c0 3.3-2.7 6-6 6H6.1C0 120 0 114 0 114v84h1443V0h-117c-3.3 0-6 2.7-6 6v51c0 3.3 2.7 6 6 6h48c3.3 0 6 2.7 6 6v45c0 3.3-2.7 6-6 6h-48c-3.3 0-6 2.7-6 6v48c0 3.3-2.7 6-6 6h-105c-3.3 0-6-2.7-6-6v-45c0-3.3 2.7-6 6-6h48c3.3 0 6-2.7 6-6V66c0-3.3-2.7-6-6-6h-48c-3.3 0-6-2.7-6-6V6c0-3.3-2.7-6-6-6h-51c-3.3 0-6 2.7-6 6v48c0 3.3-2.7 6-6 6h-48c-3.3 0-6 2.7-6 6v48c0 3.3-2.7 6-6 6H969c-3.3 0-6-2.7-6-6V6c0-3.3-2.7-6-6-6h-51c-3.3 0-6 2.7-6 6v48c0 3.3-2.7 6-6 6h-45c-3.3 0-6-2.7-6-6V6c0-3.3-2.7-6-6-6h-51c-3.3 0-6 2.7-6 6v51c0 3.3 2.7 6 6 6h48c3.3 0 6 2.7 6 6v45c0 3.3-2.7 6-6 6H729c-3.3 0-6-2.7-6-6V66c0-3.3-2.7-6-6-6h-51c-3.3 0-6 2.7-6 6v48c0 3.3-2.7 6-6 6h-45c-3.3 0-6-2.7-6-6V66c0-3.3-2.7-6-6-6h-48c-3.3 0-6-2.7-6-6V6c0-3.3-2.7-6-6-6H306c-3.3 0-6 2.7-6 6v108c0 3.3-2.7 6-6 6h-45c-3.3 0-6-2.7-6-6V66c0-3.3-2.7-6-6-6h-48c-3.3 0-6-2.7-6-6V6c0-3.3-2.7-6-6-6h-51c-3.3 0-6 2.7-6 6v48c0 3.3-2.7 6-6 6H69c-3.3 0-6-2.7-6-6V6zm891 174c3.3 0 6-2.7 6-6v-45c0-3.3-2.7-6-6-6h-45c-3.3 0-6 2.7-6 6v45c0 3.3 2.7 6 6 6h45zm-480 0c3.3 0 6-2.7 6-6v-45c0-3.3-2.7-6-6-6h-45c-3.3 0-6 2.7-6 6v45c0 3.3 2.7 6 6 6h45zm-111-66c0 3.3 2.7 6 6 6h45c3.3 0 6-2.7 6-6V69c0-3.3-2.7-6-6-6h-45c-3.3 0-6 2.7-6 6v45zm177 0c0 3.3-2.7 6-6 6h-45c-3.3 0-6-2.7-6-6V69c0-3.3 2.7-6 6-6h45c3.3 0 6 2.7 6 6v45zm-360 0c0 3.3-2.7 6-6 6h-45c-3.3 0-6-2.7-6-6V69c0-3.3 2.7-6 6-6h45c3.3 0 6 2.7 6 6v45z" style="fill-rule:evenodd;clip-rule:evenodd;fill:#002a4d"/></svg>
